<svg xmlns="http://www.w3.org/2000/svg" viewBox="0 0 250 250"><defs><style>.cls-1{fill:#1a1a1a;}.cls-2{fill:#4d4d4d;}.cls-3{fill:red;}.cls-4{fill:#333;}.cls-5{fill:#db2f34;}.cls-5,.cls-6{fill-rule:evenodd;}.cls-6{fill:#fff;}</style></defs><title>Artboard 2</title><g id="Layer_2" data-name="Layer 2"><path class="cls-1" d="M193.64,125.58c-8.22-12.63-25-29.32-45.67-31.76-17-2-22.5-2.09-23.93-2.06s-6.92,0-23.93,2.06C79.41,96.26,62.66,113,54.44,125.58s-6.09,70.84-6.09,70.84L124,173.74l75.69,22.68S201.87,138.2,193.64,125.58Z"/><path d="M142.94,93.48s1.94,5.72,8.93,9.63,20,12.55,23.71,22.87,5.83,23.15,3.63,26.07-6.22,6.7-6.09,10.46,2.85,7.12,2.33,9.77-1.29,2.92-1.29,2.92,24.61,17.58,25.52,19.53a274.31,274.31,0,0,0-.13-36c-1.42-17.43-.65-30.54-16.32-46.16S152.78,93.48,142.94,93.48Z"/><path class="cls-2" d="M207.29,205s-12.22-25.65-51.47-37.25c-9.8-2.9-28.67-3.74-33.2-3.9v0h-1v0c-4.53.16-23.39,1-33.19,3.9C49.17,179.39,37,205,37,205c-3.18,4.71-3.09,8.46-2.8,10.32a1.55,1.55,0,0,0,2,1c18.1-11.65,37.22-21.7,86.4-21.7,47.83,0,67.37,10,85.47,21.7a1.56,1.56,0,0,0,2-1C210.37,213.5,210.46,209.75,207.29,205Z"/><path class="cls-3" d="M243.68,33.5c-5.41,58.26-67.45,85.15-67.45,85.15C171.86,136.41,187,145,187,145,259.76,117.82,243.68,33.5,243.68,33.5Z"/><path class="cls-3" d="M6.21,33.5s-15.58,84.82,57.24,112c0,0,14.58-9.09,10.21-26.85C73.66,118.65,11.62,91.76,6.21,33.5Z"/><path class="cls-1" d="M178.05,168.23s-1.56-4.6-.39-6.83,4.27-4.46,4.53-6.14,2.07-5.72,2.85-5.58,1.43,7.53-.13,11.16-1.29,7.95-1.68,8.79S178.82,170.88,178.05,168.23Z"/><path class="cls-4" d="M154.85,167.67s27.6,13.25,16.2,18.69-25.91,9.2-25.91,9.2a156.08,156.08,0,0,1,45.86,11c9.72,4,15.33,9.41,17.06,9.8s6.13-1-2.81-15S176.1,172.83,154.85,167.67Z"/><polygon class="cls-5" points="111.72 121.08 105.8 126.97 105.8 143.68 111.42 149.27 117.65 143.03 114.84 140.28 111.15 143.96 109.64 142.49 109.64 124.83 114.84 130.1 117.79 127.21 111.72 121.08 111.72 121.08"/><polygon class="cls-5" points="124.97 134.53 127.85 126.72 123.45 126.72 118.36 138.41 122.44 138.41 118.91 148.6 129 134.53 124.97 134.53 124.97 134.53"/><path class="cls-5" d="M144.66,126.16,139.57,121h-5.78l-3.23,3.26,1.8,1.79v18.26l-1.77,1.76,3.2,3.32h5.78l5.09-5.15V126.16Zm-8.45,20.24V124l4.6,4.41V142l-4.6,4.45Z"/><path class="cls-5" d="M102.88,143.94V127L97,121.11l-6.4,6.37v16.46l-1.69,1.7,3.6,3.63,3.63-3.64-1.69-1.69v-4.21H99v4.21l-1.7,1.7,3.6,3.63,3.64-3.64-1.7-1.69Zm-8.41-8.22V124.84L99,129.41v6.31Z"/><polygon class="cls-6" points="98.06 134.75 99.03 135.72 94.47 135.72 95.44 134.75 98.06 134.75 98.06 134.75"/><polygon class="cls-6" points="98.06 134.75 99.03 135.72 99.03 129.41 98.06 129.81 98.06 134.75 98.06 134.75"/><polygon class="cls-6" points="98.06 129.81 99.03 129.41 94.47 124.84 95.44 127.19 98.06 129.81 98.06 129.81"/><polygon class="cls-6" points="95.44 134.75 94.47 135.72 94.47 124.84 95.44 127.19 95.44 134.75 95.44 134.75"/><polygon class="cls-6" points="105.95 145.63 104.58 145.63 102.88 143.94 103.86 143.54 105.95 145.63 105.95 145.63"/><polygon class="cls-6" points="105.95 145.63 104.58 145.63 100.94 149.27 100.94 150.64 105.95 145.63 105.95 145.63"/><polygon class="cls-6" points="98.06 143.54 99.03 143.94 99.03 139.73 98.06 140.71 98.06 143.54 98.06 143.54"/><polygon class="cls-6" points="98.06 140.71 99.03 139.73 94.47 139.73 95.44 140.71 98.06 140.71 98.06 140.71"/><polygon class="cls-6" points="95.44 143.54 94.47 143.94 94.47 139.73 95.44 140.71 95.44 143.54 95.44 143.54"/><polygon class="cls-6" points="92.52 150.64 92.53 149.27 88.93 145.64 87.56 145.63 92.52 150.64 92.52 150.64"/><polygon class="cls-6" points="87.56 145.63 88.93 145.64 90.62 143.94 89.65 143.54 87.56 145.63 87.56 145.63"/><polygon class="cls-6" points="89.65 143.54 90.62 143.94 90.62 127.48 89.65 127.08 89.65 143.54 89.65 143.54"/><polygon class="cls-6" points="102.88 143.94 103.86 143.54 103.86 126.57 102.88 126.97 102.88 143.94 102.88 143.94"/><polygon class="cls-6" points="137.18 144.11 136.21 146.4 140.81 141.95 139.84 141.54 137.18 144.11 137.18 144.11"/><polygon class="cls-6" points="139.84 141.54 140.81 141.95 140.81 128.43 139.84 128.84 139.84 141.54 139.84 141.54"/><polygon class="cls-6" points="139.84 128.84 140.81 128.43 136.21 124.02 137.18 126.29 139.84 128.84 139.84 128.84"/><polygon class="cls-6" points="137.18 144.11 136.21 146.4 136.21 124.02 137.18 126.29 137.18 144.11 137.18 144.11"/><polygon class="cls-6" points="145.63 144.65 144.66 144.25 144.66 126.16 145.63 125.76 145.63 144.65 145.63 144.65"/><polygon class="cls-6" points="139.98 150.37 139.57 149.4 144.66 144.25 145.63 144.65 139.98 150.37 139.98 150.37"/><polygon class="cls-6" points="133.38 150.37 133.79 149.4 139.57 149.4 139.98 150.37 133.38 150.37 133.38 150.37"/><polygon class="cls-6" points="133.38 150.37 133.79 149.4 130.59 146.08 129.23 146.07 133.38 150.37 133.38 150.37"/><polygon class="cls-6" points="131.39 143.91 132.36 144.31 130.59 146.08 129.23 146.07 131.39 143.91 131.39 143.91"/><polygon class="cls-6" points="131.39 143.91 132.36 144.31 132.36 126.06 131.39 126.47 131.39 143.91 131.39 143.91"/><polygon class="cls-6" points="131.39 126.47 132.36 126.06 130.56 124.27 129.19 124.27 131.39 126.47 131.39 126.47"/><polygon class="cls-6" points="129.19 124.27 130.56 124.27 133.79 121.01 133.39 120.04 129.19 124.27 129.19 124.27"/><polygon class="cls-6" points="139.98 120.04 139.57 121.01 133.79 121.01 133.39 120.04 139.98 120.04 139.98 120.04"/><polygon class="cls-6" points="145.63 125.76 144.66 126.16 139.57 121.01 139.98 120.04 145.63 125.76 145.63 125.76"/><polygon class="cls-6" points="130.85 133.56 129 134.53 124.97 134.53 126.37 133.56 130.85 133.56 130.85 133.56"/><polygon class="cls-6" points="121.08 139.39 122.44 138.41 118.36 138.41 116.88 139.39 121.08 139.39 121.08 139.39"/><polygon class="cls-6" points="129.24 125.75 127.85 126.72 123.45 126.72 122.82 125.75 129.24 125.75 129.24 125.75"/><polygon class="cls-6" points="126.37 133.56 124.97 134.53 127.85 126.72 129.24 125.75 126.37 133.56 126.37 133.56"/><polygon class="cls-6" points="119.17 127.22 117.79 127.21 111.72 121.08 111.73 119.7 119.17 127.22 119.17 127.22"/><polygon class="cls-6" points="119.17 127.22 117.79 127.21 114.84 130.1 114.83 131.47 119.17 127.22 119.17 127.22"/><polygon class="cls-6" points="114.83 131.47 114.84 130.1 109.64 124.83 110.61 127.2 114.83 131.47 114.83 131.47"/><polygon class="cls-6" points="110.61 142.08 109.64 142.49 109.64 124.83 110.61 127.2 110.61 142.08 110.61 142.08"/><polygon class="cls-6" points="111.14 142.6 111.15 143.96 109.64 142.49 110.61 142.08 111.14 142.6 111.14 142.6"/><polygon class="cls-6" points="111.14 142.6 111.15 143.96 114.84 140.28 114.83 138.91 111.14 142.6 111.14 142.6"/><polygon class="cls-6" points="119.03 143.03 117.65 143.03 114.84 140.28 114.83 138.91 119.03 143.03 119.03 143.03"/><polygon class="cls-6" points="119.03 143.03 117.65 143.03 111.42 149.27 111.42 150.64 119.03 143.03 119.03 143.03"/><polygon class="cls-6" points="111.42 150.64 111.42 149.27 105.8 143.68 104.82 144.08 111.42 150.64 111.42 150.64"/><polygon class="cls-6" points="104.82 144.08 105.8 143.68 105.8 126.97 104.82 126.57 104.82 144.08 104.82 144.08"/><polygon class="cls-6" points="111.73 119.7 111.72 121.08 105.8 126.97 104.82 126.57 111.73 119.7 111.73 119.7"/><polygon class="cls-5" points="153.58 121.08 147.65 126.97 147.65 143.68 153.28 149.27 159.51 143.03 156.69 140.28 153.01 143.96 151.5 142.49 151.5 124.83 156.69 130.1 159.65 127.21 153.58 121.08 153.58 121.08"/><polygon class="cls-6" points="161.02 127.22 159.65 127.21 153.58 121.08 153.58 119.7 161.02 127.22 161.02 127.22"/><polygon class="cls-6" points="161.02 127.22 159.65 127.21 156.69 130.1 156.68 131.47 161.02 127.22 161.02 127.22"/><polygon class="cls-6" points="156.68 131.47 156.69 130.1 151.5 124.83 152.47 127.2 156.68 131.47 156.68 131.47"/><polygon class="cls-6" points="152.47 142.08 151.5 142.49 151.5 124.83 152.47 127.2 152.47 142.08 152.47 142.08"/><polygon class="cls-6" points="153 142.6 153.01 143.96 151.5 142.49 152.47 142.08 153 142.6 153 142.6"/><polygon class="cls-6" points="153 142.6 153.01 143.96 156.69 140.28 156.69 138.91 153 142.6 153 142.6"/><polygon class="cls-6" points="160.89 143.03 159.51 143.03 156.69 140.28 156.69 138.91 160.89 143.03 160.89 143.03"/><polygon class="cls-6" points="160.89 143.03 159.51 143.03 153.28 149.27 153.28 150.64 160.89 143.03 160.89 143.03"/><polygon class="cls-6" points="153.28 150.64 153.28 149.27 147.65 143.68 146.68 144.08 153.28 150.64 153.28 150.64"/><polygon class="cls-6" points="146.68 144.08 147.65 143.68 147.65 126.97 146.68 126.57 146.68 144.08 146.68 144.08"/><polygon class="cls-6" points="153.58 119.7 153.58 121.08 147.65 126.97 146.68 126.57 153.58 119.7 153.58 119.7"/><polygon class="cls-6" points="90.62 127.48 89.65 127.08 97.02 119.74 97.02 121.11 90.62 127.48 90.62 127.48"/><polygon class="cls-6" points="102.88 126.97 103.86 126.57 97.02 119.74 97.02 121.11 102.88 126.97 102.88 126.97"/><polygon class="cls-6" points="118.91 148.6 119.29 149.73 130.85 133.56 129 134.53 118.91 148.6 118.91 148.6"/><polygon class="cls-6" points="118.91 148.6 117.48 149.73 121.08 139.39 122.44 138.41 118.91 148.6 118.91 148.6"/><polygon class="cls-6" points="118.36 138.41 116.88 139.39 122.82 125.75 123.45 126.72 118.36 138.41 118.36 138.41"/><polygon class="cls-6" points="117.48 149.73 119.29 149.73 118.91 148.6 117.48 149.73 117.48 149.73"/><polygon class="cls-6" points="97.34 145.63 97.34 145.64 99.03 143.94 98.06 143.54 96.75 144.85 96.75 145.64 97.34 145.63 97.34 145.63"/><polygon class="cls-6" points="96.16 145.63 94.47 143.94 95.44 143.54 96.75 144.85 96.75 145.64 96.16 145.63 96.16 145.63"/><polygon class="cls-6" points="97.34 145.63 96.75 145.64 96.75 146.42 100.94 150.64 100.94 149.27 97.34 145.63 97.34 145.63"/><polygon class="cls-6" points="92.53 149.27 92.52 150.64 96.75 146.42 96.75 145.64 96.16 145.63 92.53 149.27 92.53 149.27"/></g></svg>