<svg xmlns="http://www.w3.org/2000/svg" viewBox="0 0 250 250"><defs><style>.cls-1{fill:#1a1a1a}.cls-5,.cls-6{fill:#db2f34;fill-rule:evenodd}.cls-6{fill:#fff}</style></defs><g id="Layer_2" data-name="Layer 2"><path class="cls-1" d="M193.64 125.58c-8.22-12.63-25-29.32-45.67-31.76-17-2-22.5-2.09-23.93-2.06s-6.92 0-23.93 2.06c-20.7 2.44-37.45 19.18-45.67 31.76s-6.09 70.84-6.09 70.84L124 173.74l75.69 22.68s2.18-58.22-6.05-70.84z"/><path d="M142.94 93.48s1.94 5.72 8.93 9.63 20 12.55 23.71 22.87 5.83 23.15 3.63 26.07-6.22 6.7-6.09 10.46 2.85 7.12 2.33 9.77-1.29 2.92-1.29 2.92 24.61 17.58 25.52 19.53a274.31 274.31 0 0 0-.13-36c-1.42-17.43-.65-30.54-16.32-46.16s-30.45-19.09-40.29-19.09z"/><path d="M207.29 205s-12.22-25.65-51.47-37.25c-9.8-2.9-28.67-3.74-33.2-3.9h-1c-4.53.16-23.39 1-33.19 3.9C49.17 179.39 37 205 37 205c-3.18 4.71-3.09 8.46-2.8 10.32a1.55 1.55 0 0 0 2 1c18.1-11.65 37.22-21.7 86.4-21.7 47.83 0 67.37 10 85.47 21.7a1.56 1.56 0 0 0 2-1c.3-1.82.39-5.57-2.78-10.32z" fill="#4d4d4d"/><path d="M243.68 33.5c-5.41 58.26-67.45 85.15-67.45 85.15C171.86 136.41 187 145 187 145c72.76-27.18 56.68-111.5 56.68-111.5zm-237.47 0s-15.58 84.82 57.24 112c0 0 14.58-9.09 10.21-26.85 0 0-62.04-26.89-67.45-85.15z" fill="red"/><path class="cls-1" d="M178.05 168.23s-1.56-4.6-.39-6.83 4.27-4.46 4.53-6.14 2.07-5.72 2.85-5.58 1.43 7.53-.13 11.16-1.29 7.95-1.68 8.79-4.41 1.25-5.18-1.4z"/><path d="M154.85 167.67s27.6 13.25 16.2 18.69-25.91 9.2-25.91 9.2a156.08 156.08 0 0 1 45.86 11c9.72 4 15.33 9.41 17.06 9.8s6.13-1-2.81-15-29.15-28.53-50.4-33.69z" fill="#333"/><path class="cls-5" d="M111.72 121.08l-5.92 5.89v16.71l5.62 5.59 6.23-6.24-2.81-2.75-3.69 3.68-1.51-1.47v-17.66l5.2 5.27 2.95-2.89-6.07-6.13zm13.25 13.45l2.88-7.81h-4.4l-5.09 11.69h4.08l-3.53 10.19L129 134.53h-4.03zm19.69-8.37l-5.09-5.16h-5.78l-3.23 3.26 1.8 1.79v18.26l-1.77 1.76 3.2 3.32h5.78l5.09-5.15v-18.08zm-8.45 20.24V124l4.6 4.41V142l-4.6 4.45zm-33.33-2.46V127L97 121.11l-6.4 6.37v16.46l-1.69 1.7 3.6 3.63 3.63-3.64-1.69-1.69v-4.21H99v4.21l-1.7 1.7 3.6 3.63 3.64-3.64-1.7-1.69zm-8.41-8.22v-10.88l4.53 4.57v6.31z"/><path class="cls-6" d="M98.06 134.75l.97.97h-4.56l.97-.97h2.62z"/><path class="cls-6" d="M98.06 134.75l.97.97v-6.31l-.97.4v4.94z"/><path class="cls-6" d="M98.06 129.81l.97-.4-4.56-4.57.97 2.35 2.62 2.62z"/><path class="cls-6" d="M95.44 134.75l-.97.97v-10.88l.97 2.35v7.56zm10.51 10.88h-1.37l-1.7-1.69.98-.4 2.09 2.09zm0 0h-1.37l-3.64 3.64v1.37l5.01-5.01zm-7.89-2.09l.97.4v-4.21l-.97.98v2.83z"/><path class="cls-6" d="M98.06 140.71l.97-.98h-4.56l.97.98h2.62z"/><path class="cls-6" d="M95.44 143.54l-.97.4v-4.21l.97.98v2.83zm-2.92 7.1l.01-1.37-3.6-3.63-1.37-.01 4.96 5.01z"/><path class="cls-6" d="M87.56 145.63l1.37.01 1.69-1.7-.97-.4-2.09 2.09z"/><path class="cls-6" d="M89.65 143.54l.97.4v-16.46l-.97-.4v16.46zm13.23.4l.98-.4v-16.97l-.98.4v16.97zm34.3.17l-.97 2.29 4.6-4.45-.97-.41-2.66 2.57zm2.66-2.57l.97.41v-13.52l-.97.41v12.7z"/><path class="cls-6" d="M139.84 128.84l.97-.41-4.6-4.41.97 2.27 2.66 2.55z"/><path class="cls-6" d="M137.18 144.11l-.97 2.29v-22.38l.97 2.27v17.82zm8.45.54l-.97-.4v-18.09l.97-.4v18.89z"/><path class="cls-6" d="M139.98 150.37l-.41-.97 5.09-5.15.97.4-5.65 5.72z"/><path class="cls-6" d="M133.38 150.37l.41-.97h5.78l.41.97h-6.6z"/><path class="cls-6" d="M133.38 150.37l.41-.97-3.2-3.32-1.36-.01 4.15 4.3z"/><path class="cls-6" d="M131.39 143.91l.97.4-1.77 1.77-1.36-.01 2.16-2.16z"/><path class="cls-6" d="M131.39 143.91l.97.4v-18.25l-.97.41v17.44z"/><path class="cls-6" d="M131.39 126.47l.97-.41-1.8-1.79h-1.37l2.2 2.2zm-2.2-2.2h1.37l3.23-3.26-.4-.97-4.2 4.23z"/><path class="cls-6" d="M139.98 120.04l-.41.97h-5.78l-.4-.97h6.59z"/><path class="cls-6" d="M145.63 125.76l-.97.4-5.09-5.15.41-.97 5.65 5.72zm-14.78 7.8l-1.85.97h-4.03l1.4-.97h4.48zm-9.77 5.83l1.36-.98h-4.08l-1.48.98h4.2zm8.16-13.64l-1.39.97h-4.4l-.63-.97h6.42z"/><path class="cls-6" d="M126.37 133.56l-1.4.97 2.88-7.81 1.39-.97-2.87 7.81zm-7.2-6.34l-1.38-.01-6.07-6.13.01-1.38 7.44 7.52z"/><path class="cls-6" d="M119.17 127.22l-1.38-.01-2.95 2.89-.01 1.37 4.34-4.25z"/><path class="cls-6" d="M114.83 131.47l.01-1.37-5.2-5.27.97 2.37 4.22 4.27zm-4.22 10.61l-.97.41v-17.66l.97 2.37v14.88zm.53.52l.01 1.36-1.51-1.47.97-.41.53.52z"/><path class="cls-6" d="M111.14 142.6l.01 1.36 3.69-3.68-.01-1.37-3.69 3.69z"/><path class="cls-6" d="M119.03 143.03h-1.38l-2.81-2.75-.01-1.37 4.2 4.12zm0 0h-1.38l-6.23 6.24v1.37l7.61-7.61zm-7.61 7.61v-1.37l-5.62-5.59-.98.4 6.6 6.56z"/><path class="cls-6" d="M104.82 144.08l.98-.4v-16.71l-.98-.4v17.51z"/><path class="cls-6" d="M111.73 119.7l-.01 1.38-5.92 5.89-.98-.4 6.91-6.87z"/><path class="cls-5" d="M153.58 121.08l-5.93 5.89v16.71l5.63 5.59 6.23-6.24-2.82-2.75-3.68 3.68-1.51-1.47v-17.66l5.19 5.27 2.96-2.89-6.07-6.13z"/><path class="cls-6" d="M161.02 127.22l-1.37-.01-6.07-6.13v-1.38l7.44 7.52z"/><path class="cls-6" d="M161.02 127.22l-1.37-.01-2.96 2.89-.01 1.37 4.34-4.25z"/><path class="cls-6" d="M156.68 131.47l.01-1.37-5.19-5.27.97 2.37 4.21 4.27zm-4.21 10.61l-.97.41v-17.66l.97 2.37v14.88zm.53.52l.01 1.36-1.51-1.47.97-.41.53.52z"/><path class="cls-6" d="M153 142.6l.01 1.36 3.68-3.68v-1.37L153 142.6zm7.89.43h-1.38l-2.82-2.75v-1.37l4.2 4.12z"/><path class="cls-6" d="M160.89 143.03h-1.38l-6.23 6.24v1.37l7.61-7.61zm-7.61 7.61v-1.37l-5.63-5.59-.97.4 6.6 6.56z"/><path class="cls-6" d="M146.68 144.08l.97-.4v-16.71l-.97-.4v17.51z"/><path class="cls-6" d="M153.58 119.7v1.38l-5.93 5.89-.97-.4 6.9-6.87zm-62.96 7.78l-.97-.4 7.37-7.34v1.37l-6.4 6.37z"/><path class="cls-6" d="M102.88 126.97l.98-.4-6.84-6.83v1.37l5.86 5.86zm16.03 21.63l.38 1.13 11.56-16.17-1.85.97-10.09 14.07zm0 0l-1.43 1.13 3.6-10.34 1.36-.98-3.53 10.19zm-.55-10.19l-1.48.98 5.94-13.64.63.97-5.09 11.69z"/><path class="cls-6" d="M117.48 149.73h1.81l-.38-1.13-1.43 1.13zm-20.14-4.1v.01l1.69-1.7-.97-.4-1.31 1.31v.79l.59-.01zm-1.18 0l-1.69-1.69.97-.4 1.31 1.31v.79l-.59-.01z"/><path class="cls-6" d="M97.34 145.63l-.59.01v.78l4.19 4.22v-1.37l-3.6-3.64zm-4.81 3.64l-.01 1.37 4.23-4.22v-.78l-.59-.01-3.63 3.64z"/></g></svg>