<svg id="Layer_1" data-name="Layer 1" xmlns="http://www.w3.org/2000/svg" viewBox="0 0 150 27"><title>Artboard 1</title><path d="M23.5,23.5l6,3.5V23.5Z" fill="#890000"/><path d="M10.1,16.3.5,27h29V23.6h91V27h29l-9.6-10.7h0l9.6-10.8h-23V0H23.5V5.5H.5l9.6,10.7" fill="red"/><path d="M126.5,23.5l-6,3.5V23.5Z" fill="#890000"/><path d="M23.5,23.5l6,3.5V23.5Z" fill="#890000"/><path d="M39,12.3c0,.1,0,.3.1.3-.3,1.7-.1,3.9-.3,5.8-.4.2-.9,0-1.4,0a11.1,11.1,0,0,1-3.1-.1c-.1.1-.1.2-.3.1a2.5,2.5,0,0,1,.1-1.3c-.3-.2-.1-.6-.3-.7.2-2.2-.3-4.5-.2-6.2-.2-.2-.2,0-.3-.3s.2-.1.3-.3-.3-2,0-2.1-.4-1.2,0-1.8-.2-.8-.2-1.1,1.3.2,1.7-.1.2,1.2.3,2h.2c.1.9-.3,1.6.1,2.3a4.6,4.6,0,0,0-.2,2.4c.1.4.4.9-.1,1.1s0,1.4.4,1.6a4.5,4.5,0,0,0,.1,2.3,1.7,1.7,0,0,1,1,0c.2-1,0-2.3.4-3.3s0-.2-.2-.2-.1-2.2,0-3.4.2,0,.3,0-.3-.6,0-1,.2-1.7-.2-2.2a.5.5,0,0,0,.2-.4c-.3-.4,0-.7,0-1.2s1.6-.1,2-.2c.1,1.7-.4,3.6,0,5.3-.1.1-.2,0-.3.2S39,11.8,39,12.3ZM34.2,6.2c0-.1,0-.2.1-.2h-.2C34.1,6.1,34.1,6.1,34.2,6.2Zm.3-.1c-.1-.1.2-.2,0-.3a.2.2,0,0,0-.3.1C34.5,5.6,34.4,6.2,34.5,6.1Zm-.1.4h-.1c.2.1.3.2.3-.1Zm-.1,7.2c.1.1.3.1.3,0h.1c-.1-.2-.1-.4-.3-.4h.1C34.1,13.2,34.5,13.5,34.3,13.7Zm.4,1.8c.1.4-.1.1-.3.1v.2h.1c0-.3.3.1.5,0s.1-.1.2-.3H35C34.9,15.8,34.9,15.4,34.7,15.5Zm-.1-5.2c0,.2.1.2.1.4s-.1.1,0,.1,0-.1.1-.1-.2-.2,0-.3-.1-.2-.1-.3-.1-.2-.2-.2,0,.6-.1.6Zm.1.6c-.1,0-.2,0-.3-.2v.2c.2,0,0,.2.1.1S34.9,11,34.7,10.9Zm0-1.2h-.2v.2C34.6,9.8,34.7,9.8,34.7,9.7Zm.5,7.6c0-.1-.2-.1-.1-.2h0c-.1.1-.2.3-.1.3S35.3,17.5,35.2,17.3Zm.2-.8c0-.1.1-.1.1-.2s-.1,0-.2-.1,0,.2,0,.3Zm2.1.2h.3c0-.1,0-.1.1-.2H38c-.2-.1-.3.1-.3,0s.1,0,.1-.1S37.5,16.5,37.5,16.7Zm.4-5.3c-.1,0,0-.1-.1-.2s0,.1-.2.1-.1-.2,0-.1v.2C37.8,11.3,37.8,11.6,37.9,11.4ZM37.8,16h-.2c.3,0,.3,0,.4-.2s-.4.2-.4.4S38,16.2,37.8,16Zm.1-8.3c0,.1.3.3.3.1s.1-.2.1-.2V7.3h.1c-.2.1-.2.4-.4.5ZM38.4,9h-.5c.1.2.3.2.1.5h.4V9.3s-.2-.2-.1-.2,0-.1.3,0Zm-.1,2h-.1c0,.2.1.3.2.3S38.3,11.2,38.3,11Zm-.1-5.5h.3C38.4,5.4,38.2,5.3,38.2,5.5Zm.2,2.3h.2c0-.2-.3-.1-.3-.2h-.1c.2-.1.2.3.3.1S38.4,7.9,38.4,7.8Z" fill="#f2f2f2"/><path d="M46.2,10.6a10.8,10.8,0,0,1,0,1.8h-.8c-.1-.1,0-.4-.2-.5s-.2.2-.1.5a.5.5,0,0,0-.4.2H42.6c-.2,0-.1,0-.1-.1s.2.9-.2,1.2a12.2,12.2,0,0,1,0,2.7h1.5c.7-.7.4-1.4.4-2.7s1.5,0,2.2-.2a3.8,3.8,0,0,0,.1,2.1c.1.2-.1.1-.1.2s-.2,1.6-.1,2.6-2.3,0-3.4,0,.1.2,0,.2-2-.2-2.6-.5-.2-2.5,0-3.8.3-1,.5-.6-.4-.3-.5-.6-.1-1.7.1-1.8-.1-.1-.1-.2-.3-1.9.1-2.7,0-.8,0-1-.1-.4-.2-.6-.1-1.5.3-1.7-.2-.1-.2-.4.5,0,.7-.2c1.7.3,3.3-.1,5.1.1a7.5,7.5,0,0,1,0,1.5c-.1.5.3,1,.3,1.5s-.3,1.2-.3,1.8a4,4,0,0,1-1.9-.1c0-.4.2-.4,0-.8h.3s-.2-.3-.2-.1.1-.8-.1-1.2-1-.3-1.7-.5a.1.1,0,0,1-.1.1c-.1,1.8-.1,2.6-.2,3.9s.9-.2,1.8,0,.9.2.8,0h.3C45.2,10.5,45.9,10.6,46.2,10.6Zm-5.8,2.8c.2.1,0,.1,0,.4A.3.3,0,0,1,40.4,13.4Zm.5-2.3c.1,0-.1.1,0,.1l.2-.2c.1.2-.1.2.1.2s-.2-.3-.3-.2.1.1,0,.1ZM41,8.5h0c.1,0,.1,0,.1.1s0-.2.1-.3H41Zm.1,7.7c.1.1.1.1.1,0s0-.2.1-.1,0-.1-.1-.2-.3.3-.1.3Zm.1-5.7c.1,0,.1-.2.3-.2v.2h-.2c0,.2,0,.3.2.3s.1-.3.1-.4h.1l-.4-.2c0,.1-.4.1-.2.2S41.1,10.5,41.2,10.5Zm.1.9c0-.2,0,.3-.1.3s.3,0,.2.1.2.3.2.1.3-.1.1-.2h.1c-.2-.1-.2.1-.3.1h-.1l.2-.2C41.4,11.2,41.5,11.4,41.3,11.4Zm.3,1.6c-.3,0,0-.1-.1-.1s-.1.4,0,.4S41.6,13.2,41.6,13Zm0-6.8c0-.2.3.2.1,0s-.1-.2-.1-.3h.1c-.1.1-.2.1-.2.3A.1.1,0,0,0,41.6,6.2Zm.2,10.6h-.2c0,.1-.1.2-.1.3s.3.3.5.4h0c.1,0,.1,0,0,.1h.5c-.1-.1.2-.1,0-.2h-.1v-.3c0,.1-.2.2-.2.1l.2-.2c-.1-.1-.3.1-.2-.1S42,16.6,41.8,16.8Zm1-5.1h-.1c0,.2-.2-.3-.4-.1s0,.4.2.2S42.8,11.9,42.8,11.7Zm0,5.2c0,.2.3.3.2.2s0-.2-.1-.2h0c-.1,0-.3.2-.1.2Zm1.4-5.7c.3.1,0,0,.3-.1s0,.3,0,.3.1-.1,0-.2.3.1.3-.2h-.6Zm.4,6.2c-.2-.2,0-.5-.1-.6s0,.2-.1.3S44.4,17.4,44.6,17.4Zm.3-.6c0,.2-.1.1-.2.2s0-.2-.1-.2-.1.3,0,.3h.2C44.9,17,45,16.9,44.9,16.8Zm.1-1.4c-.2.4.2-.4.1-.3H45Zm.3-6.9H45v.2Zm-.1,6.9c0,.2.2.1.1.3h0c0-.2.3,0,.3-.2Zm.4,1.9c-.1-.1.1-.2,0-.2s0-.2-.2-.1-.2.4,0,.5.1-.1.2-.1h0Z" fill="#f2f2f2"/><path d="M47.4,4.5h6c-.1.7.2,1.7-.1,2.1s0,1.7.3,2.6,0,.5,0,.8a5.7,5.7,0,0,0,0,2.6H52.5c0,.4-.1.4-.4.6s.4-.1.5,0-.1.8.3.9c-.2,1.6.6,3.1.5,4.3a5,5,0,0,1-2.1-.1c0-.3-.1-.3,0-.7s-.1-.1-.2-.2-.2-.9-.2-1.4a4,4,0,0,1,0-1.1,6.9,6.9,0,0,1-.5-1.7,1,1,0,0,0-.1-.7,1,1,0,0,0-.8.2c0,2.1,0,4.1.1,5.6s-.6.2-.9.2,0-.2-.1-.3a2.9,2.9,0,0,1-1.1.3,5.6,5.6,0,0,1,.1-1.9,32.8,32.8,0,0,1-.2-3.4,3.8,3.8,0,0,0,0-1.5c.1-.2,0-.7.2-.8a9.8,9.8,0,0,1,0-4.2c-.1-.3-.3-.6-.1-.8A9.4,9.4,0,0,1,47.4,4.5Zm.8,12.8c.1.3-.3.1-.3.3H48c0-.1.4.1.3.1s.3-.1.5,0,.1-.1,0-.3-.4-.1-.5.2a.1.1,0,0,1-.1-.1c.1,0,.1-.1.1-.2Zm.1-10.4H48c.1,0,.1,0,0,.1s.2,0,.2.1.1.4-.2.4-.1.2.1.4l.2-.3c0-.1-.1,0-.1-.1a.2.2,0,0,0,.2-.2c-.2-.1.3-.8.2-.9s-.3.4-.4.1S48.3,6.8,48.3,6.9Zm0,4.6c-.1.2,0,.2,0-.1h0Zm-.1,1.9H48c0,.2,0,.3.1.4S48.1,13.6,48.2,13.4Zm.1,1.2h-.1c0,.1-.3.2-.1.2h.1c.2.1,0,.1.1.1s.1-.1.2,0-.1-.1,0-.1h.4c0-.2-.4-.2-.2,0Zm-.2,1.9h.3c0-.2.1.1.1-.1s.2,0,.2-.1,0-.1,0-.2-.2-.1-.3-.1-.1.2,0,.4h-.1c0-.1-.1-.2-.1-.3h0s-.1-.1-.1,0S48,16.5,48.1,16.5Zm.3-7c.1-.2-.2-.1-.2,0s.2-.1.2.2.4-.6.1-.4h.1C48.4,9.2,48.5,9.4,48.4,9.5Zm.2-.6c-.2.1-.2.1-.1-.1h-.2c.1,0,0,.2.1.2Zm0,4.8c0,.1,0,.1-.1.1h0c.1.2-.1.1-.1.3s.1.1.1.2h.3c0-.2-.1-.2-.2-.3h.2Zm.6-4.6c.4,0,.4.7.3,1a.2.2,0,0,1,.2.2h1.5c-.1-1.4.1-2.5-.1-3.7s-1.1,0-1.8,0S49.6,8.5,49.2,9.1Zm.5,2.6c.1-.2,0,.2.2.1s.2.2.2,0-.2-.1-.2-.2-.2-.2-.2,0Zm.3,0c.3,0,0-.2.1-.3h.2c-.2-.1,0-.2-.2-.2s-.1.1-.2,0S50.1,11.5,50,11.7Zm.9-.4c-.1,0,0-.1-.1-.1s-.3.2-.1.2h0c.1.2.1,0,.3,0s.1-.3.1-.4h-.2C50.9,11.3,51,11.3,50.9,11.3Zm0-6c.3,0,.4.2.3.3s.1,0,.2.1h0c0,.1.2.2.2.1s.1-.4,0-.6-.2-.1-.2.1a.1.1,0,0,1-.1-.1C51.2,5.3,51.1,5.1,50.9,5.3Zm.8,7.9c0,.2-.1.1-.1.2s.2-.2,0-.2-.1,0-.2.1,0-.4-.2-.4,0,.6.3.8.3-.1.4-.3S52,13.2,51.7,13.2Zm-.1-.6c-.3,0-.1-.4-.3-.2s-.1.4.1.3Zm.1,2.2c0-.1-.1-.1-.1-.2s.1-.2.2-.2-.1-.2-.2-.1,0,.3-.2.3S51.6,14.9,51.7,14.8Zm0,1.4c.1.1.3-.2.2-.2s-.2.1-.2,0Zm.1-6.7c-.1.2-.1.4.2.3S52,9.5,51.8,9.5Zm.4,1.8c-.1,0-.2-.1-.2,0h.1c.1-.1-.2.1,0,.1S52.2,11.5,52.2,11.3Zm0,5.6h.2c0,.1-.2.2,0,.3s.2-.2.1-.2.2-.2-.1-.4-.3,0-.4.1-.1.3.1.2S52.1,16.9,52.2,16.9ZM52,12h.1l.2-.3H52C52,12,51.9,12,52,12Zm.2-5.6c0,.1,0,.2.1.1s-.2-.3-.1-.4H52c.1.2.2.3.1.4Zm.2-.9c-.2-.2-.2-.2-.2,0s-.3,0-.1,0ZM52.5,7c0,.2-.1.2-.2.3h-.1c.2,0,.1.3.2.3S52.7,7.2,52.5,7Z" fill="#f2f2f2"/><path d="M60.4,10.6c0,.7-.1,1.2-.1,1.8h-.7c-.2-.1-.1-.4-.3-.5s-.1.2-.1.5l-.4.2H56.7c-.1,0,0,0,0-.1s.1.9-.3,1.2,0,1.8.1,2.7H58c.7-.7.3-1.4.3-2.7s1.6,0,2.2-.2a3.1,3.1,0,0,0,.2,2.1c0,.2-.2.1-.2.2s-.2,1.6-.1,2.6-2.3,0-3.3,0,0,.2-.1.2-2-.2-2.6-.5-.2-2.5,0-3.8.3-1,.5-.6-.4-.3-.4-.6a5.4,5.4,0,0,1,0-1.8c.1-.1-.1-.1-.1-.2s-.3-1.9.2-2.7a.9.9,0,0,1,0-1c-.1-.2-.1-.4-.3-.6s-.1-1.5.3-1.7-.2-.1-.1-.4.5,0,.6-.2c1.8.3,3.3-.1,5.2.1a3.8,3.8,0,0,1-.1,1.5c0,.5.3,1,.3,1.5a11,11,0,0,0-.2,1.8,4.4,4.4,0,0,1-2-.1c.1-.4.3-.4.1-.8h.2s-.2-.3-.2-.1.2-.8,0-1.2-1.1-.3-1.7-.5h-.2a22.4,22.4,0,0,1-.2,3.9c.6.3.9-.2,1.9,0s.8.2.8,0h.2C59.3,10.5,60,10.6,60.4,10.6Zm-5.9,2.8c.2.1,0,.1.1.4S54.4,13.5,54.5,13.4Zm.5-2.3h.1l.2-.2c.1.2-.2.2.1.2s-.3-.3-.3-.2H55Zm.1-2.6h0c.1,0,.1,0,.1.1s.1-.2.2-.3h-.3Zm.2,7.7c0,.1,0,.1.1,0h0c-.1-.1.1-.1,0-.2s-.3.3-.2.3Zm0-5.7c.2,0,.2-.2.3-.2v.2h-.2c0,.2,0,.3.1.3a.4.4,0,0,0,.2-.4h0l-.4-.2c0,.1-.3.1-.1.2S55.2,10.5,55.3,10.5Zm.2.9c-.1-.2,0,.3-.2.3s.4,0,.2.1.2.3.3.1.2-.1.1-.2h0c-.2-.1-.2.1-.2.1h-.2a.2.2,0,0,0,.2-.2C55.5,11.2,55.7,11.4,55.5,11.4Zm.2,1.6c-.2,0,0-.1-.1-.1s-.1.4.1.4S55.8,13.2,55.7,13Zm0-6.8c0-.2.4.2.2,0l-.2-.3h.2c-.1.1-.3.1-.3.3A.1.1,0,0,1,55.7,6.2Zm.2,10.6h-.2c0,.1-.1.2-.1.3s.3.3.5.4,0-.1.1-.1.1,0,0,.1h.5c-.2-.1.1-.1,0-.2h-.2a.2.2,0,0,0,0-.3c0,.1-.2.2-.2.1l.2-.2c-.1-.1-.3.1-.2-.1S56.1,16.6,55.9,16.8Zm1-5.1c-.1,0,.1,0,0-.1s-.3-.3-.4-.1,0,.4.1.2S56.9,11.9,56.9,11.7Zm.1,5.2c-.1.2.3.3.1.2v-.2c0,.1-.1,0,0-.1s-.4.2-.2.2A.1.1,0,0,1,57,16.9Zm1.3-5.7c.4.1.1,0,.4-.1s-.1.3,0,.3.1-.1,0-.2.2.1.2-.2h-.6Zm.4,6.2c-.2-.2.1-.5,0-.6s0,.2-.2.3S58.6,17.4,58.7,17.4Zm.3-.6c0,.2-.1.1-.2.2v-.2c0,.2-.1.3,0,.3h.1A.1.1,0,0,1,59,17C59.1,17,59.1,16.9,59,16.8Zm.2-1.4c-.2.4.2-.4,0-.3h-.1C59.1,15.3,59.1,15.4,59.2,15.4Zm.2-6.9h-.2c0,.1-.1.1,0,.2Zm0,6.9c-.1.2.1.1.1.3h0c0-.2.2,0,.2-.2h-.3Zm.3,1.9c-.1-.1.2-.2,0-.2s0-.2-.2-.1-.1.4,0,.5.1-.1.2-.1h0Z" fill="#f2f2f2"/><path d="M65.3,16.7c-.2.2,0,.9.1,1.1s-.4.3-.1.6a5.6,5.6,0,0,1-3.2-.2l-.6.2a2.5,2.5,0,0,1,.2-1.9h.8a1.9,1.9,0,0,1,0-1.3,8.7,8.7,0,0,1,0-3.6c0-.1-.1-.1-.1-.3a3.3,3.3,0,0,0,0-1c0-.2.1,0,.2-.3s.2-.4-.2-.4-.2-1.7.1-1.9h-.3c0-.4.3-.6.2-.9a1.3,1.3,0,0,0-.8-.2c0-.7-.1-.9-.1-1.9s2.2.1,3.8.1a10.8,10.8,0,0,0,0,1.8h-1c-.1.5.2,1.4,0,1.7a1.6,1.6,0,0,1,0,1.2,20.9,20.9,0,0,0,.1,2.4c.1,1.4-.3,3.4.1,4.6h.6S65.1,16.8,65.3,16.7Zm-2.4-2.1h.2c0-.1-.1-.1-.1-.3s-.3.2-.1.2S62.8,14.6,62.9,14.6Zm.2-2.2h-.2c.1,0,0,.1.1.2s-.3.5,0,.6l.5-.4A.3.3,0,0,1,63.1,12.4Zm.1-7.1h-.3C62.8,5.6,63.3,5.6,63.2,5.3Zm-.1,4.2c.3-.1.1,0-.1-.1s.3.1.3-.1.1-.2,0-.2-.2-.2-.2,0,0,.2-.1.2S63,9.5,63.1,9.5Zm.1,2.5c.1-.1.1.2.2,0s.2-.1,0-.3-.4.4-.2.3Zm.2.4h.3c-.1,0,.1,0,.1-.2l-.4.3C63.5,12.5,63.5,12.5,63.4,12.4Zm.2,2.7c-.2-.1-.2.2-.1.2a.1.1,0,0,1,.1-.1c0,.3-.2.5.1.6S63.7,15.4,63.6,15.1Zm0-8.8h0c0,.1-.2.1-.2.2h.2c0-.1.2-.2.1-.2Zm.8-.4s-.2,0-.2-.1.1,0,0-.2h.2c-.2,0,0,0-.1-.1a.9.9,0,0,0-.1.5Z" fill="#f2f2f2"/><path d="M69.8,18.4c-.1-.6.1-.9-.1-1.3s.2-.1.2-.3a5.9,5.9,0,0,1-.1-2.3h0a8.7,8.7,0,0,1,.1-2.3,6.1,6.1,0,0,1,0-2.7h-.1a27.6,27.6,0,0,1,0-2.9,3.5,3.5,0,0,0-1.4-.1c-.8.2-.4,1.4-.5,2.3l.2.3a23.6,23.6,0,0,0-.3,2.9,6.9,6.9,0,0,1,.3,2c-.3.5.1.9-.3,1.3a5.8,5.8,0,0,1,.3,1.4c-.4.5-.3.8-.3,1.6a3.9,3.9,0,0,1-1.8.2,3.2,3.2,0,0,1,.1-1.8.8.8,0,0,0-.2-.4c.3-.5,0-1.4.1-1.9v-.9c0-.3-.1-.6-.1-.9s.2-.8.2-1.2S66,10,66,9l.2-.2a2,2,0,0,1,0-1.7.6.6,0,0,1,0-.8,3.7,3.7,0,0,1-.1-1.5c2.5-.1,3.7.2,5.8-.1a19.3,19.3,0,0,1-.1,2.5,2.7,2.7,0,0,1,.1,1.5c0,.2-.1.2-.2.3s0,1,.1,1.3-.1,4-.1,5.6-.2.3-.2.4.2,1.2.2,2A4.1,4.1,0,0,1,69.8,18.4Zm-3.2-3.5h.2c-.1-.2.1-.2.1-.3h-.2C66.7,14.8,66.5,14.9,66.6,14.9Zm0-4.8H67c0-.1-.1-.1.1-.2s.2,0,.1-.1-.2-.2-.3-.3-.2.1-.1.3h.1c-.1.1-.1-.2-.2,0h-.1ZM67,8.7h-.2c0,.1-.2.2,0,.2S67,8.8,67,8.7Zm-.1-2c-.1-.1.1-.3.1-.4h-.1c.3,0,0,0,0-.1h-.1c0,.2.1.3.2.3h-.3Zm0,2.4c-.1-.1-.1-.2-.2,0h.2l.2-.2c.5.6-.1-.2-.2,0H67C66.9,8.9,66.9,9,66.9,9.1Zm0,4.2c.1.2-.2.1,0,.2h.2c.1.2,0,.1-.1.3s-.1,0-.2-.1.2.1.2.2-.2.1-.1.3.1-.6.4-.5-.1-.1,0-.2-.1-.1-.3-.1-.3,0-.1.1Zm.3,4.1c0-.1.1,0,.1-.2s-.3-.1-.3-.2h0c.1,0,.2-.1,0-.1s-.1.2-.1.4S67,17.4,67.2,17.4Zm.1-10.7H67c.2,0,0,.1.1.1s.1.1.1.1.3-.4.2-.5-.2-.1-.2,0,.2.3.1.3S67.2,6.6,67.3,6.7Zm-.1,2.1c0-.1.1,0,.1-.1s.1-.1,0-.2-.1-.2-.3,0S67,8.8,67.2,8.8Zm2-2.9c-.2-.1.2-.1.2-.3s-.3.2-.4.3ZM70,6c0-.1.3-.1.1-.2s.1-.3,0-.3h-.2c.1.2-.2,0-.2.3Zm.7,3h-.2c-.2.3,0,.2.1.3s-.4.1-.3.2h.2c0-.3.5.3.4,0h-.2c0-.1-.1-.2,0-.3s.2.3.2.1.1-.2.1-.4h0c-.2,0,0-.2-.1-.2a.2.2,0,0,1-.2.2l.2-.2h-.3C70.8,8.9,70.5,8.9,70.7,9Zm-.3,1.5h-.1c0,.2.3.2.3.1s-.3-.3-.2-.1S70.5,10.5,70.4,10.5Zm.2,2s-.1-.1,0-.1h.1v-.2c-.4,0-.4.3-.3.5S70.6,12.7,70.6,12.5Zm-.1-6.1c0,.2,0,.3.1.3s.2,0,.3-.3-.1-.1,0-.1-.4-.3-.3-.1.3.2.1.3S70.6,6.4,70.5,6.4Zm0,6.3a.7.7,0,0,0,.6-.1v-.2h-.3C70.7,12.7,70.7,12.5,70.5,12.7Zm.2,4.3h0c.2,0,.1-.1.2-.1v.2c.2,0,.2-.4,0-.5s-.4-.1-.3-.1.1.1.2.3S70.7,16.9,70.7,17Zm0-11.2h-.1c.1.2-.1.2.2.2S70.9,5.8,70.7,5.8Zm.1,7.6c.2,0-.1.2.1.3s0-.2.1-.2h0C71,13.5,70.9,13.3,70.8,13.4Z" fill="#f2f2f2"/><path d="M76.7,14.7c0-.2-.3-.3-.5-.6s-.5-1-1.1-1a.7.7,0,0,0-.7-.8c.3-.2,0-.3,0-.7s-1-1.1-1.5-1.6,0-1.2-.1-1.7.2-.2.3-.4-.1-1-.2-1.5-.1.2-.1.3,0-.1,0-.3-.1-1.4.1-1.6a.8.8,0,0,1,.8.1c.1-.1,0-.2.1-.2s.9.4,1.1,0a20.8,20.8,0,0,1,2.5,0l.3-.2c.3.3.6-.1,1,.2s.3,2.9-.1,4.6H76.7a5.3,5.3,0,0,0-.2-2.6H75c-.4.6-.2,1.4-.2,2.1h.3c0,.2,0,.5.3.6h-.1A12,12,0,0,1,77,11.7c-.2.1-.1.2-.2.4h.4c.5.4.6,1.2,1.3,1.3s.5,1,.2,1.4.1.2.1.3.3,1.4-.2,2,.1,1,0,1,0,.4,0,.6-1.6-.3-1.8,0a11.5,11.5,0,0,0-2.7.1,3,3,0,0,0-1.3-.1c0-.1-.2-.2-.2-.2s0-1.9.4-2.8-.2,0-.2-.1a4.7,4.7,0,0,1,.1-1.7h1.8a8.6,8.6,0,0,0,.3,1.7c-.5.6.3,1.2.7,1.3h.4c0,.1.2.1.6-.2S76.9,15.3,76.7,14.7ZM73.4,7.9c-.2-.1,0,0,0-.1s.1-.4-.1-.3.1.3,0,.1,0,.3-.1.3-.1-.1-.1,0-.1.1.2.1Zm.4.8c-.3-.2.3-.4.1-.5s-.4-.1-.5.1S73.5,8.5,73.8,8.7Zm-.1,7.6.4.2c-.1-.1-.1-.3-.2-.2s-.1.1-.1.1-.3-.5-.3-.5,0,.7.2.5S73.5,16.3,73.7,16.3Zm0-9.6c.1-.1,0-.2.1-.3h0c-.1,0,0-.2-.1-.2s-.2.3-.1.5S73.7,6.7,73.7,6.7Zm.2,10.6c-.1.2-.1-.2-.1,0s-.3.5,0,.3h0s.2-.2.3,0-.1.1,0,.1.1-.1.1-.2h-.3c.3-.1.2-.1.3,0s0-.3-.1-.3,0,.2-.2.1-.1-.2,0-.1-.1-.1-.1.1A.3.3,0,0,1,73.9,17.3Zm.1-1.5h.2a.1.1,0,0,1-.1-.1c-.2.1-.3.5,0,.3S74,15.9,74,15.8Zm.3-6.6c0,.1.1.2.1.1s-.2-.2-.3,0,.3-.2.1-.2h-.1c.1,0-.1.2-.1.2S74.2,9.3,74.3,9.2Zm.3-3.9c-.1,0-.4,0-.3.2s.3.1.5.1a.2.2,0,0,0,0-.3c-.1.1-.2-.1-.1.1S74.4,5.4,74.6,5.3Zm.9,6.4h.3c.1-.2,0-.3-.1-.2h-.2v-.3h-.1C75.6,11.4,75.4,11.7,75.5,11.7Zm.4,0c.1.2,0,.5.3.5Zm1.2,2.5c0-.2.1-.1.1-.3s.2-.2,0-.1H77C77.1,13.9,77.1,13.9,77.1,14.2Zm.5-5.5c-.1-.2.1-.3.2-.4a.5.5,0,0,1-.4-.2c0,.2,0,.3.1.4h-.1c0,.1,0,.2-.1.2h-.1c.2.1.3,0,.3-.1S77.8,8.8,77.6,8.7ZM77.5,14h.2c-.2-.1-.1.2-.3.1s.1-.1,0-.2.2.3.1.5S77.7,14.2,77.5,14Zm.3,2.8c0,.1-.2.3,0,.3s.1,0,.1-.1H78c.1-.1,0-.3-.1-.2h-.1Z" fill="#f2f2f2"/><path d="M83.5,16.7c-.2.2,0,.9.1,1.1s-.4.3-.1.6a5.6,5.6,0,0,1-3.2-.2,1.1,1.1,0,0,1-.6.2,2.5,2.5,0,0,1,.2-1.9h.8a1.9,1.9,0,0,1,0-1.3,8.7,8.7,0,0,1,0-3.6c0-.1-.1-.1-.1-.3a3.3,3.3,0,0,0,0-1c0-.2.1,0,.2-.3s.2-.4-.2-.4-.2-1.7.1-1.9h-.3c0-.4.3-.6.2-.9a1.3,1.3,0,0,0-.8-.2c0-.7-.1-.9-.1-1.9s2.2.1,3.8.1a10.8,10.8,0,0,0,0,1.8h-1c-.1.5.2,1.4,0,1.7a1.6,1.6,0,0,1,0,1.2,20.9,20.9,0,0,0,.1,2.4c.1,1.4-.3,3.4.1,4.6h.6S83.3,16.8,83.5,16.7Zm-2.4-2.1h.2c0-.1-.1-.1-.1-.3s-.3.2-.1.2S81,14.6,81.1,14.6Zm.2-2.2h-.2c.1,0,0,.1.1.2s-.3.5,0,.6l.5-.4A.3.3,0,0,1,81.3,12.4Zm.1-7.1h-.3C81,5.6,81.5,5.6,81.4,5.3Zm-.1,4.2c.3-.1.1,0-.1-.1s.3.1.3-.1.1-.2,0-.2-.2-.2-.2,0,0,.2-.1.2S81.2,9.5,81.3,9.5Zm.1,2.5c.1-.1.1.2.2,0s.2-.1,0-.3-.4.4-.2.3Zm.2.4h.3c-.1,0,.1,0,.1-.2l-.4.3C81.7,12.5,81.7,12.5,81.6,12.4Zm.2,2.7c-.2-.1-.2.2-.1.2a.1.1,0,0,1,.1-.1c0,.3-.2.5.1.6S81.9,15.4,81.8,15.1Zm0-8.8h0c0,.1-.2.1-.2.2h.2c0-.1.2-.2.1-.2Zm.8-.4s-.2,0-.2-.1.1,0,0-.2h.2c-.2,0,0,0-.1-.1a.9.9,0,0,0-.1.5Z" fill="#f2f2f2"/><path d="M88,18.4c-.1-.6.1-.9-.1-1.3s.2-.1.2-.3a5.9,5.9,0,0,1-.1-2.3h0a8.7,8.7,0,0,1,.1-2.3,6.1,6.1,0,0,1,0-2.7H88a27.6,27.6,0,0,1,0-2.9,3.5,3.5,0,0,0-1.4-.1c-.8.2-.4,1.4-.5,2.3l.2.3a23.6,23.6,0,0,0-.3,2.9,6.9,6.9,0,0,1,.3,2c-.3.5.1.9-.3,1.3a5.8,5.8,0,0,1,.3,1.4c-.4.5-.3.8-.3,1.6a3.9,3.9,0,0,1-1.8.2,2.5,2.5,0,0,1,.1-1.8.8.8,0,0,0-.2-.4c.3-.5-.1-1.4.1-1.9v-.9c0-.3-.2-.6-.2-.9s.3-.8.3-1.2S84.2,10,84.2,9l.2-.2a2,2,0,0,1,0-1.7.6.6,0,0,1,0-.8,3.7,3.7,0,0,1-.1-1.5c2.5-.1,3.7.2,5.8-.1A19.3,19.3,0,0,1,90,7.2a4,4,0,0,1,.1,1.5c0,.2-.1.2-.2.3s0,1,.1,1.3-.2,4-.1,5.6-.2.3-.2.4.1,1.2.2,2A4.1,4.1,0,0,1,88,18.4Zm-3.2-3.5H85c-.1-.2.1-.2.1-.3h-.2C84.9,14.8,84.7,14.9,84.8,14.9Zm0-4.8h.4c0-.1-.1-.1.1-.2s.2,0,.1-.1-.2-.2-.3-.3-.2.1-.1.3h.1c-.1.1-.1-.2-.2,0h-.1Zm.4-1.4H85c0,.1-.2.2,0,.2S85.2,8.8,85.2,8.7Zm-.1-2c-.1-.1.1-.3.1-.4h-.1c.3,0,0,0,0-.1H85c0,.2.1.3.2.3h-.3Zm0,2.4c-.1-.1-.1-.2-.2,0h.2c.1,0,.1-.1.2-.2s-.1-.2-.2,0h.1C85.1,8.9,85.1,9,85.1,9.1Zm0,4.2c.1.2-.2.1,0,.2h.2c.1.2,0,.1-.1.3s-.1,0-.2-.1.2.1.2.2-.2.1-.1.3.1-.6.4-.5-.1-.1,0-.2-.1-.1-.3-.1-.3,0-.1.1Zm.3,4.1c0-.1.1,0,.1-.2s-.3-.1-.3-.2h0c.1,0,.2-.1,0-.1s-.1.2-.1.4S85.2,17.4,85.4,17.4Zm.1-10.7h-.3c.2,0,0,.1.1.1s.1.1.1.1.3-.4.2-.5-.2-.1-.2,0,.2.3.1.3S85.4,6.6,85.5,6.7Zm-.1,2.1c0-.1.1,0,.1-.1s.1-.1,0-.2-.1-.2-.3,0S85.2,8.8,85.4,8.8Zm2-2.9c-.2-.1.2-.1.2-.3s-.3.2-.4.3Zm.8.1c0-.1.3-.1.1-.2s.1-.3,0-.3h-.2c.1.2-.2,0-.2.3Zm.7,3h-.2c-.2.3,0,.2.1.3s-.4.1-.3.2h.2c0-.3.5.3.4,0h-.2c0-.1-.1-.2,0-.3s.2.3.2.1.1-.2.1-.4h0c-.2,0,0-.2-.1-.2a.2.2,0,0,1-.2.2l.2-.2h-.3C89,8.9,88.7,8.9,88.9,9Zm-.3,1.5h-.1c0,.2.3.2.3.1s-.3-.3-.2-.1S88.7,10.5,88.6,10.5Zm.2,2s-.1-.1,0-.1h.1v-.2c-.4,0-.4.3-.3.5S88.8,12.7,88.8,12.5Zm-.1-6.1c0,.2,0,.3.1.3s.2,0,.3-.3-.1-.1,0-.1-.4-.3-.3-.1.3.2.1.3S88.8,6.4,88.7,6.4Zm0,6.3a.7.7,0,0,0,.6-.1v-.2h-.3C88.9,12.7,88.9,12.5,88.7,12.7Zm.2,4.3h0c.2,0,.1-.1.2-.1v.2c.2,0,.2-.4,0-.5s-.4-.1-.3-.1.1.1.2.3S88.9,16.9,88.9,17Zm0-11.2h-.1c.1.2-.1.2.2.2S89.1,5.8,88.9,5.8Zm.1,7.6c.2,0-.1.2.1.3s0-.2.1-.2h0C89.2,13.5,89.1,13.3,89,13.4Z" fill="#f2f2f2"/><path d="M92.5,7.9a2.5,2.5,0,0,0,.2-1.3H90.6a14.1,14.1,0,0,0,.1-2.1c1.8.1,3.9-.1,5.8,0a.2.2,0,0,0,.2.2,11,11,0,0,0-.2,1.8c-.5.1-.9.6-1.2.1h-.8c-.3.7.3,1.3.1,1.9s-.2.3-.2.4a16.2,16.2,0,0,0,.2,1.8c0,.4-.1.9-.1,1.3s.1.8.1,1.1-.1.2-.1.3.3.5.3.7-.2.4-.3.7.3,1.3,0,1.8,0,1.5-.1,2-.9-.3-1.6-.3,0-.8-.1-1.3h.2c-.4-1.5,0-3.7-.2-5.2s.1,0,.2-.1,0-.2-.2-.4-.2-1,.2-1S92.9,8.5,92.5,7.9Zm-.7-2.8c-.1.2-.1,0,0-.2h-.2a.2.2,0,0,0,.1.3S92,5.1,91.8,5.1Zm1.6,6.3c-.1-.1,0-.1.1-.3h-.3c0,.3-.2.2-.1.4Zm.1-3c.1-.2-.1-.2,0-.3a.5.5,0,0,0-.3.4Zm0,7.3c-.2.1,0,.1-.1.2s.1-.1.2-.2h-.2c0,.1-.2.3-.1.3S93.3,15.7,93.5,15.7Zm.1-2.2c0,.3-.4.4-.3.5S93.7,13.7,93.6,13.5Zm-.1-2.9h0v.2c.2-.2.2-.6.3-.7s-.2.1-.2-.1h-.3c.1,0,.1-.3,0-.1s.2.3,0,.5S93.7,10.5,93.5,10.6Zm0-2.6c0-.3.2.1.2.1s-.1.1-.1.3.3-.2.1-.2-.1.2-.1,0h.3c-.1-.2-.1-.3,0-.7h-.2l-.3.3C93.5,7.7,93.3,7.8,93.5,8Zm.1,8.4c-.1,0-.2.2-.1.2a.1.1,0,0,1,.1-.1v.4c.1-.1.1-.5.1-.6s-.4-.1-.2.1ZM94.7,5.6c0-.1.1-.3-.1-.3h-.1c-.1.2,0,.2,0,.4Z" fill="#f2f2f2"/><path d="M103.3,10.6c0,.7-.1,1.2-.1,1.8h-.7c-.2-.1-.1-.4-.3-.5s-.1.2,0,.5-.3.1-.4.2H99.7c-.2,0-.1,0-.1-.1s.1.9-.3,1.2,0,1.8.1,2.7h1.5c.7-.7.3-1.4.3-2.7s1.6,0,2.2-.2a3.1,3.1,0,0,0,.2,2.1c0,.2-.2.1-.2.2s-.2,1.6-.1,2.6-2.3,0-3.3,0,0,.2-.1.2-2-.2-2.6-.5-.2-2.5,0-3.8.4-1,.5-.6-.4-.3-.4-.6a5.4,5.4,0,0,1,0-1.8c.1-.1-.1-.1-.1-.2s-.3-1.9.2-2.7a.9.9,0,0,1,0-1c-.1-.2-.1-.4-.3-.6s-.1-1.5.3-1.7-.2-.1-.1-.4.5,0,.7-.2c1.7.3,3.3-.1,5.1.1a3.8,3.8,0,0,1-.1,1.5c0,.5.3,1,.3,1.5a11,11,0,0,0-.2,1.8,4.4,4.4,0,0,1-2-.1c.1-.4.3-.4.1-.8h.2s-.1-.3-.1-.1.1-.8-.1-1.2-1.1-.3-1.7-.5h-.2c0,1.8,0,2.6-.1,3.9s.8-.2,1.8,0,.8.2.8,0h.3C102.2,10.5,102.9,10.6,103.3,10.6Zm-5.9,2.8c.2.1,0,.1.1.4S97.3,13.5,97.4,13.4Zm.5-2.3c.2,0,0,.1.1.1l.2-.2c.1.2-.1.2.1.2s-.2-.3-.3-.2.1.1,0,.1Zm.2-2.6h0c.3,0,.1-.2.2-.3h-.2Zm.1,7.7c0,.1,0,.1.1,0h0c-.1-.1.1-.1,0-.2s-.3.3-.2.3Zm0-5.7c.2,0,.2-.2.3-.2v.2h-.2c0,.2,0,.3.1.3a.4.4,0,0,0,.2-.4h0l-.4-.2c0,.1-.3.1-.1.2S98.1,10.5,98.2,10.5Zm.2.9c-.1-.2,0,.3-.2.3s.4,0,.3.1.1.3.2.1.2-.1.1-.2h.1c-.3-.1-.3.1-.3.1h-.1a.3.3,0,0,0,.1-.2C98.5,11.2,98.6,11.4,98.4,11.4Zm.2,1.6c-.2,0,0-.1-.1-.1s0,.4.1.4S98.7,13.2,98.6,13Zm0-6.8c0-.2.4.2.2,0l-.2-.3h.2c-.1.1-.3.1-.3.3A.1.1,0,0,1,98.6,6.2Zm.3,10.6h-.3c0,.1-.1.2-.1.3s.4.3.5.4,0-.1.1-.1.1,0,0,.1h.5c-.2-.1.1-.1,0-.2h-.2a.2.2,0,0,0,0-.3c0,.1-.1.2-.1.1v-.2c-.1-.1-.3.1-.1-.1S99,16.6,98.9,16.8Zm.9-5.1c-.1,0,.1,0,0-.1s-.3-.3-.4-.1,0,.4.1.2S99.8,11.9,99.8,11.7Zm.1,5.2c-.1.2.3.3.1.2v-.2c0,.1-.1,0,0-.1l-.2.2A.1.1,0,0,1,99.9,16.9Zm1.3-5.7c.4.1.1,0,.4-.1s-.1.3,0,.3.1-.1,0-.2.2.1.2-.2h-.6Zm.4,6.2c-.2-.2.1-.5,0-.6s0,.2-.2.3S101.5,17.4,101.6,17.4Zm.3-.6c0,.2-.1.1-.1.2s0-.2-.1-.2-.1.3,0,.3h.1a.1.1,0,0,1,.1-.1C102,17,102,16.9,101.9,16.8Zm.2-1.4c-.2.4.2-.4.1-.3H102C102,15.3,102,15.4,102.1,15.4Zm.2-6.9h-.2c.1.1-.1.1.1.2Zm0,6.9c-.1.2.1.1.1.3h0c0-.2.2,0,.2-.2h-.3Zm.3,1.9c0-.1.2-.2,0-.2s0-.2-.2-.1-.1.4,0,.5.2-.1.2-.1h0Z" fill="#f2f2f2"/><path d="M104.5,4.5h5.9c0,.7.2,1.7-.1,2.1s0,1.7.4,2.6-.1.5-.1.8a7.6,7.6,0,0,0,0,2.6h-1c-.1.4-.2.4-.5.6s.4-.1.5,0,0,.8.3.9c-.1,1.6.7,3.1.5,4.3a4.6,4.6,0,0,1-2-.1,1.5,1.5,0,0,1-.1-.7c0-.1-.1-.1-.1-.2a7,7,0,0,0-.3-1.4,4,4,0,0,0,0-1.1,7.1,7.1,0,0,1-.4-1.7.7.7,0,0,0-.2-.7c-.3-.1-.5.1-.7.2v5.6c-.2.3-.5.2-.9.2s.1-.2,0-.3a3.5,3.5,0,0,1-1.1.3,6,6,0,0,1,0-1.9,18.4,18.4,0,0,1-.1-3.4,2.7,2.7,0,0,0-.1-1.5c.2-.2.1-.7.3-.8a11.5,11.5,0,0,1-.1-4.2c0-.3-.2-.6-.1-.8S104.4,5.1,104.5,4.5Zm.7,12.8c.1.3-.2.1-.2.3h0c.1-.1.4.1.3.1s.4-.1.5,0,.2-.1.1-.3-.5-.1-.5.2-.1,0-.1-.1.1-.1.1-.2Zm.1-10.4h-.2c.1,0,.2,0,.2.1s0,.4-.3.4,0,.2.1.4l.3-.3h-.2c.1,0,.2,0,.2-.2s.4-.8.3-.9-.4.4-.5.1S105.3,6.8,105.3,6.9Zm0,4.6c-.1.2.1.2.1-.1h-.1Zm-.1,1.9H105c0,.2.1.3.1.4S105.1,13.6,105.2,13.4Zm.2,1.2h-.2c0,.1-.2.2-.1.2h.2c.2.1-.1.1,0,.1s.1-.1.2,0-.1-.1,0-.1h.4c0-.2-.4-.2-.2,0Zm-.3,1.9h.4c-.1-.2.1.1.1-.1s.2,0,.1-.1,0-.1,0-.2-.1-.1-.2-.1-.1.2-.1.4h-.1c.1-.1,0-.2,0-.3s0,.1-.1.1-.1-.1-.1,0S105,16.5,105.1,16.5Zm.4-7c0-.2-.3-.1-.2,0s.1-.1.1.2.4-.6.2-.4h.1C105.4,9.2,105.6,9.4,105.5,9.5Zm.2-.6c-.2.1-.3.1-.2-.1h-.2c.1,0,.1.2.2.2Zm0,4.8c0,.1,0,.1-.1.1h-.1c.2.2,0,.1-.1.3s.2.1.1.2h.3c.1-.2-.1-.2-.1-.3h.2Zm.6-4.6c.3,0,.4.7.3,1s.1.2.2.2h1.5c-.1-1.4,0-2.5-.1-3.7s-1.2,0-1.9,0S106.7,8.5,106.3,9.1Zm.5,2.6c.1-.2,0,.2.1.1s.2.2.2,0-.1-.1-.2-.2-.2-.2-.2,0Zm.2,0c.4,0,0-.2.1-.3h.2c-.1-.1.1-.2-.1-.2s-.2.1-.2,0S107.1,11.5,107,11.7Zm1-.4h-.2c.1.2-.3.2,0,.2h0c.1.2.1,0,.2,0s.2-.3.1-.4H108Zm0-6c.2,0,.4.2.2.3s.2,0,.2.1a.1.1,0,0,1,.1-.1c0,.1.1.2.1.1s.1-.4,0-.6-.2-.1-.2.1a.1.1,0,0,0-.1-.1C108.2,5.3,108.2,5.1,108,5.3Zm.8,7.9c0,.2-.1.1-.2.2s.2-.2.1-.2h-.2c0-.2,0-.4-.2-.4s-.1.6.3.8.2-.1.4-.3S109,13.2,108.8,13.2Zm-.2-.6c-.2,0,0-.4-.3-.2s0,.4.1.3Zm.1,2.2c.1-.1-.1-.1-.1-.2s.1-.2.2-.2-.1-.2-.1-.1a.3.3,0,0,1-.3.3C108.3,14.3,108.7,14.9,108.7,14.8Zm0,1.4c.2.1.3-.2.3-.2a.2.2,0,0,1-.3,0Zm.2-6.7c-.1.2-.1.4.1.3S109,9.5,108.9,9.5Zm.3,1.8s-.2-.1-.2,0h.1c.2-.1-.1.1,0,.1S109.3,11.5,109.2,11.3Zm0,5.6h.2c0,.1-.1.2.1.3s.2-.2,0-.2.3-.2,0-.4-.4,0-.5.1,0,.3.1.2S109.1,16.9,109.2,16.9Zm-.1-4.9h.1l.2-.3h-.3C109.1,12,109,12,109.1,12Zm.2-5.6c0,.1,0,.2.1.1s-.3-.3-.1-.4h-.2a.8.8,0,0,1,.1.4Zm.2-.9c-.2-.2-.3-.2-.2,0s-.3,0-.2,0Zm0,1.5c0,.2-.1.2-.1.3h-.1c.2,0,.1.3.2.3S109.8,7.2,109.5,7Z" fill="#f2f2f2"/><path d="M115.1,18.4c-.1-.6.2-.9,0-1.3s.2-.1.2-.3a4.4,4.4,0,0,1-.1-2.3h-.1a8.6,8.6,0,0,1,.2-2.3,4.1,4.1,0,0,1,0-2.7h-.1a23.6,23.6,0,0,1-.1-2.9,3.3,3.3,0,0,0-1.4-.1c-.7.2-.3,1.4-.4,2.3v.3a24.8,24.8,0,0,0-.2,2.9,13.8,13.8,0,0,1,.3,2c-.3.5.1.9-.3,1.3a3.2,3.2,0,0,1,.2,1.4,2.6,2.6,0,0,0-.3,1.6,3.7,3.7,0,0,1-1.8.2,3.1,3.1,0,0,1,.2-1.8c-.1-.1-.1-.3-.2-.4s-.1-1.4,0-1.9l.2-.2-.2-.2a4.3,4.3,0,0,1,.1-.5,2.9,2.9,0,0,1-.2-.9c0-.3.2-.8.2-1.2a20.7,20.7,0,0,1,0-2.5l.2-.2a2,2,0,0,1,0-1.7c-.2-.3-.3-.5,0-.8s-.2-1.1-.1-1.5c2.4-.1,3.7.2,5.8-.1-.1,1,0,1.7-.1,2.5a4,4,0,0,1,.1,1.5c0,.2-.2.2-.2.3v1.3c.2,1.4-.1,4,0,5.6s-.2.3-.3.4.2,1.2.3,2A4.6,4.6,0,0,1,115.1,18.4ZM112,14.9h.1c0-.2.1-.2.1-.3h-.1C112.1,14.8,111.8,14.9,112,14.9Zm0-4.8h.4c0-.1-.1-.1.1-.2s.1,0,.1-.1-.2-.2-.4-.3-.1.1-.1.3h.1c0,.1-.1-.2-.1,0H112Zm.4-1.4h-.2s0-.2-.1-.1-.1.2,0,.2S112.4,8.8,112.4,8.7Zm-.1-2c-.2-.1.1-.3.1-.4h-.2c.3,0,.1,0,0-.1h-.1c.1.2.1.3.3.3h-.3Zm0,2.4c-.1-.1-.2-.2-.2,0h.2c.1,0,.1-.1.2-.2s-.1-.2-.3,0h.2C112.2,8.9,112.2,9,112.3,9.1Zm0,4.2c.1.2-.2.1-.1.2h.3c0,.2,0,.1-.1.3s-.1,0-.2-.1.2.1.2.2-.2.1-.2.3.2-.6.4-.5,0-.1,0-.2-.1-.1-.2-.1-.3,0-.2.1Zm.2,4.1c0-.1.2,0,.1-.2s-.2-.1-.2-.2h0c.1,0,.1-.1,0-.1s-.2.2-.1.4S112.4,17.4,112.5,17.4Zm.1-10.7h-.2c.1,0,0,.1.1.1s0,.1.1.1.3-.4.2-.5-.2-.1-.2,0,.2.3,0,.3S112.5,6.6,112.6,6.7Zm-.1,2.1c0-.1.2,0,.2-.1s.1-.1-.1-.2-.1-.2-.2,0S112.4,8.8,112.5,8.8Zm2.1-2.9c-.3-.1.1-.1.1-.3s-.2.2-.3.3Zm.8.1c0-.1.3-.1.1-.2s0-.3-.1-.3h-.1c.1.2-.3,0-.3.3A.5.5,0,0,1,115.4,6Zm.6,3h-.2c-.1.3.1.2.2.3s-.4.1-.3.2h.1c0-.3.5.3.4,0h-.1c0-.1-.1-.2,0-.3s.2.3.2.1V8.9h.1c-.2,0,0-.2-.1-.2s-.1.2-.2.2.1-.1.1-.2h-.3C116.2,8.9,115.8,8.9,116,9Zm-.2,1.5h-.1c0,.2.2.2.2.1s-.2-.3-.1-.1Zm.2,2c-.1,0-.2-.1-.1-.1h.1v-.2c-.4,0-.4.3-.3.5S116,12.7,116,12.5Zm-.2-6.1a.4.4,0,0,0,.1.3c0-.3.3,0,.4-.3s-.1-.1-.1-.1-.3-.3-.2-.1.2.2,0,.3S115.9,6.4,115.8,6.4Zm.1,6.3a.7.7,0,0,0,.6-.1c-.1,0-.1-.1-.1-.2h-.3C116.1,12.7,116,12.5,115.9,12.7ZM116,17c.1,0,.1,0,0,.1h.3c0,.1,0,.1-.1.2s.2-.4.1-.5-.4-.1-.4-.1.2.1.3.3S116,16.9,116,17Zm0-11.2h-.1c.2.2-.1.2.3.2S116.2,5.8,116,5.8Zm.2,7.6c.2,0-.1.2.1.3v-.2c0,.1,0,.2.1.1S116.3,13.3,116.2,13.4Z" fill="#f2f2f2"/></svg>