<svg data-name="Layer 1" xmlns="http://www.w3.org/2000/svg" viewBox="0 0 150 27"><path d="M23.5 23.5l6 3.5v-3.5z" fill="#890000"/><path d="M10.1 16.3L.5 27h29v-3.4h91V27h29l-9.6-10.7 9.6-10.8h-23V0h-103v5.5H.5l9.6 10.7" fill="red"/><path d="M126.5 23.5l-6 3.5v-3.5zm-103 0l6 3.5v-3.5z" fill="#890000"/><path d="M39 12.3c0 .1 0 .3.1.3-.3 1.7-.1 3.9-.3 5.8-.4.2-.9 0-1.4 0a11.1 11.1 0 0 1-3.1-.1c-.1.1-.1.2-.3.1a2.5 2.5 0 0 1 .1-1.3c-.3-.2-.1-.6-.3-.7.2-2.2-.3-4.5-.2-6.2-.2-.2-.2 0-.3-.3s.2-.1.3-.3-.3-2 0-2.1-.4-1.2 0-1.8-.2-.8-.2-1.1 1.3.2 1.7-.1.2 1.2.3 2h.2c.1.9-.3 1.6.1 2.3a4.6 4.6 0 0 0-.2 2.4c.1.4.4.9-.1 1.1s0 1.4.4 1.6a4.5 4.5 0 0 0 .1 2.3 1.7 1.7 0 0 1 1 0c.2-1 0-2.3.4-3.3s0-.2-.2-.2-.1-2.2 0-3.4.2 0 .3 0-.3-.6 0-1 .2-1.7-.2-2.2a.5.5 0 0 0 .2-.4c-.3-.4 0-.7 0-1.2s1.6-.1 2-.2c.1 1.7-.4 3.6 0 5.3-.1.1-.2 0-.3.2s-.1 2-.1 2.5zm-4.8-6.1c0-.1 0-.2.1-.2h-.2c0 .1 0 .1.1.2zm.3-.1c-.1-.1.2-.2 0-.3a.2.2 0 0 0-.3.1c.3-.3.2.3.3.2zm-.1.4h-.1c.2.1.3.2.3-.1zm-.1 7.2c.1.1.3.1.3 0h.1c-.1-.2-.1-.4-.3-.4h.1c-.4-.1 0 .2-.2.4zm.4 1.8c.1.4-.1.1-.3.1v.2h.1c0-.3.3.1.5 0s.1-.1.2-.3H35c-.1.3-.1-.1-.3 0zm-.1-5.2c0 .2.1.2.1.4s-.1.1 0 .1 0-.1.1-.1-.2-.2 0-.3-.1-.2-.1-.3-.1-.2-.2-.2 0 .6-.1.6zm.1.6c-.1 0-.2 0-.3-.2v.2c.2 0 0 .2.1.1s.4 0 .2-.1zm0-1.2h-.2v.2c.1-.1.2-.1.2-.2zm.5 7.6c0-.1-.2-.1-.1-.2-.1.1-.2.3-.1.3s.3.1.2-.1zm.2-.8c0-.1.1-.1.1-.2s-.1 0-.2-.1 0 .2 0 .3zm2.1.2h.3c0-.1 0-.1.1-.2h.1c-.2-.1-.3.1-.3 0s.1 0 .1-.1-.3.1-.3.3zm.4-5.3c-.1 0 0-.1-.1-.2s0 .1-.2.1-.1-.2 0-.1v.2c.2-.1.2.2.3 0zm-.1 4.6h-.2c.3 0 .3 0 .4-.2s-.4.2-.4.4.4 0 .2-.2zm.1-8.3c0 .1.3.3.3.1s.1-.2.1-.2v-.3h.1c-.2.1-.2.4-.4.5zm.5 1.3h-.5c.1.2.3.2.1.5h.4v-.2s-.2-.2-.1-.2 0-.1.3 0zm-.1 2h-.1c0 .2.1.3.2.3s-.1-.1-.1-.3zm-.1-5.5h.3c-.1-.1-.3-.2-.3 0zm.2 2.3h.2c0-.2-.3-.1-.3-.2h-.1c.2-.1.2.3.3.1s-.1.2-.1.1zm7.8 2.8a10.8 10.8 0 0 1 0 1.8h-.8c-.1-.1 0-.4-.2-.5s-.2.2-.1.5a.5.5 0 0 0-.4.2h-2.1c-.2 0-.1 0-.1-.1s.2.9-.2 1.2a12.2 12.2 0 0 1 0 2.7h1.5c.7-.7.4-1.4.4-2.7s1.5 0 2.2-.2a3.8 3.8 0 0 0 .1 2.1c.1.2-.1.1-.1.2s-.2 1.6-.1 2.6-2.3 0-3.4 0 .1.2 0 .2-2-.2-2.6-.5-.2-2.5 0-3.8.3-1 .5-.6-.4-.3-.5-.6-.1-1.7.1-1.8-.1-.1-.1-.2-.3-1.9.1-2.7 0-.8 0-1-.1-.4-.2-.6-.1-1.5.3-1.7-.2-.1-.2-.4.5 0 .7-.2c1.7.3 3.3-.1 5.1.1a7.5 7.5 0 0 1 0 1.5c-.1.5.3 1 .3 1.5s-.3 1.2-.3 1.8a4 4 0 0 1-1.9-.1c0-.4.2-.4 0-.8h.3s-.2-.3-.2-.1.1-.8-.1-1.2-1-.3-1.7-.5a.1.1 0 0 1-.1.1c-.1 1.8-.1 2.6-.2 3.9s.9-.2 1.8 0 .9.2.8 0h.3c.1-.2.8-.1 1.1-.1zm-5.8 2.8c.2.1 0 .1 0 .4a.3.3 0 0 1 0-.4zm.5-2.3c.1 0-.1.1 0 .1l.2-.2c.1.2-.1.2.1.2s-.2-.3-.3-.2.1.1 0 .1zm.1-2.6c.1 0 .1 0 .1.1s0-.2.1-.3H41zm.1 7.7c.1.1.1.1.1 0s0-.2.1-.1 0-.1-.1-.2-.3.3-.1.3zm.1-5.7c.1 0 .1-.2.3-.2v.2h-.2c0 .2 0 .3.2.3s.1-.3.1-.4h.1l-.4-.2c0 .1-.4.1-.2.2s0 .1.1.1zm.1.9c0-.2 0 .3-.1.3s.3 0 .2.1.2.3.2.1.3-.1.1-.2h.1c-.2-.1-.2.1-.3.1h-.1l.2-.2c-.2-.4-.1-.2-.3-.2zm.3 1.6c-.3 0 0-.1-.1-.1s-.1.4 0 .4.1-.1.1-.3zm0-6.8c0-.2.3.2.1 0s-.1-.2-.1-.3h.1c-.1.1-.2.1-.2.3a.1.1 0 0 0 .1 0zm.2 10.6h-.2c0 .1-.1.2-.1.3s.3.3.5.4c.1 0 .1 0 0 .1h.5c-.1-.1.2-.1 0-.2h-.1v-.3c0 .1-.2.2-.2.1l.2-.2c-.1-.1-.3.1-.2-.1s-.2-.3-.4-.1zm1-5.1h-.1c0 .2-.2-.3-.4-.1s0 .4.2.2.3.1.3-.1zm0 5.2c0 .2.3.3.2.2s0-.2-.1-.2-.3.2-.1.2zm1.4-5.7c.3.1 0 0 .3-.1s0 .3 0 .3.1-.1 0-.2.3.1.3-.2h-.6zm.4 6.2c-.2-.2 0-.5-.1-.6s0 .2-.1.3 0 .3.2.3zm.3-.6c0 .2-.1.1-.2.2s0-.2-.1-.2-.1.3 0 .3h.2c.1-.1.2-.2.1-.3zm.1-1.4c-.2.4.2-.4.1-.3H45zm.3-6.9H45v.2zm-.1 6.9c0 .2.2.1.1.3 0-.2.3 0 .3-.2zm.4 1.9c-.1-.1.1-.2 0-.2s0-.2-.2-.1-.2.4 0 .5.1-.1.2-.1zm1.8-12.8h6c-.1.7.2 1.7-.1 2.1s0 1.7.3 2.6 0 .5 0 .8a5.7 5.7 0 0 0 0 2.6h-1.1c0 .4-.1.4-.4.6s.4-.1.5 0-.1.8.3.9c-.2 1.6.6 3.1.5 4.3a5 5 0 0 1-2.1-.1c0-.3-.1-.3 0-.7s-.1-.1-.2-.2-.2-.9-.2-1.4a4 4 0 0 1 0-1.1 6.9 6.9 0 0 1-.5-1.7 1 1 0 0 0-.1-.7 1 1 0 0 0-.8.2c0 2.1 0 4.1.1 5.6s-.6.2-.9.2 0-.2-.1-.3a2.9 2.9 0 0 1-1.1.3 5.6 5.6 0 0 1 .1-1.9 32.8 32.8 0 0 1-.2-3.4 3.8 3.8 0 0 0 0-1.5c.1-.2 0-.7.2-.8a9.8 9.8 0 0 1 0-4.2c-.1-.3-.3-.6-.1-.8a9.4 9.4 0 0 1-.1-1.4zm.8 12.8c.1.3-.3.1-.3.3h.1c0-.1.4.1.3.1s.3-.1.5 0 .1-.1 0-.3-.4-.1-.5.2a.1.1 0 0 1-.1-.1c.1 0 .1-.1.1-.2zm.1-10.4H48c.1 0 .1 0 0 .1s.2 0 .2.1.1.4-.2.4-.1.2.1.4l.2-.3c0-.1-.1 0-.1-.1a.2.2 0 0 0 .2-.2c-.2-.1.3-.8.2-.9s-.3.4-.4.1.1.3.1.4zm0 4.6c-.1.2 0 .2 0-.1zm-.1 1.9H48c0 .2 0 .3.1.4s0-.2.1-.4zm.1 1.2h-.1c0 .1-.3.2-.1.2h.1c.2.1 0 .1.1.1s.1-.1.2 0-.1-.1 0-.1h.4c0-.2-.4-.2-.2 0zm-.2 1.9h.3c0-.2.1.1.1-.1s.2 0 .2-.1v-.2c0-.1-.2-.1-.3-.1s-.1.2 0 .4h-.1c0-.1-.1-.2-.1-.3s-.1-.1-.1 0-.1.4 0 .4zm.3-7c.1-.2-.2-.1-.2 0s.2-.1.2.2.4-.6.1-.4h.1c-.2-.1-.1.1-.2.2zm.2-.6c-.2.1-.2.1-.1-.1h-.2c.1 0 0 .2.1.2zm0 4.8c0 .1 0 .1-.1.1.1.2-.1.1-.1.3s.1.1.1.2h.3c0-.2-.1-.2-.2-.3h.2zm.6-4.6c.4 0 .4.7.3 1a.2.2 0 0 1 .2.2h1.5c-.1-1.4.1-2.5-.1-3.7s-1.1 0-1.8 0 .3 1.9-.1 2.5zm.5 2.6c.1-.2 0 .2.2.1s.2.2.2 0-.2-.1-.2-.2-.2-.2-.2 0zm.3 0c.3 0 0-.2.1-.3h.2c-.2-.1 0-.2-.2-.2s-.1.1-.2 0 .2.3.1.5zm.9-.4c-.1 0 0-.1-.1-.1s-.3.2-.1.2c.1.2.1 0 .3 0s.1-.3.1-.4h-.2c0 .3.1.3 0 .3zm0-6c.3 0 .4.2.3.3s.1 0 .2.1c0 .1.2.2.2.1s.1-.4 0-.6-.2-.1-.2.1a.1.1 0 0 1-.1-.1c-.1.1-.2-.1-.4.1zm.8 7.9c0 .2-.1.1-.1.2s.2-.2 0-.2-.1 0-.2.1 0-.4-.2-.4 0 .6.3.8.3-.1.4-.3.1-.2-.2-.2zm-.1-.6c-.3 0-.1-.4-.3-.2s-.1.4.1.3zm.1 2.2c0-.1-.1-.1-.1-.2s.1-.2.2-.2-.1-.2-.2-.1 0 .3-.2.3.2.3.3.2zm0 1.4c.1.1.3-.2.2-.2s-.2.1-.2 0zm.1-6.7c-.1.2-.1.4.2.3s0-.3-.2-.3zm.4 1.8c-.1 0-.2-.1-.2 0h.1c.1-.1-.2.1 0 .1s.1.1.1-.1zm0 5.6h.2c0 .1-.2.2 0 .3s.2-.2.1-.2.2-.2-.1-.4-.3 0-.4.1-.1.3.1.2 0 0 .1 0zM52 12h.1l.2-.3H52c0 .3-.1.3 0 .3zm.2-5.6c0 .1 0 .2.1.1s-.2-.3-.1-.4H52c.1.2.2.3.1.4zm.2-.9c-.2-.2-.2-.2-.2 0s-.3 0-.1 0zm.1 1.5c0 .2-.1.2-.2.3h-.1c.2 0 .1.3.2.3s.3-.4.1-.6zm7.9 3.6c0 .7-.1 1.2-.1 1.8h-.7c-.2-.1-.1-.4-.3-.5s-.1.2-.1.5l-.4.2h-2.1c-.1 0 0 0 0-.1s.1.9-.3 1.2 0 1.8.1 2.7H58c.7-.7.3-1.4.3-2.7s1.6 0 2.2-.2a3.1 3.1 0 0 0 .2 2.1c0 .2-.2.1-.2.2s-.2 1.6-.1 2.6-2.3 0-3.3 0 0 .2-.1.2-2-.2-2.6-.5-.2-2.5 0-3.8.3-1 .5-.6-.4-.3-.4-.6a5.4 5.4 0 0 1 0-1.8c.1-.1-.1-.1-.1-.2s-.3-1.9.2-2.7a.9.9 0 0 1 0-1c-.1-.2-.1-.4-.3-.6s-.1-1.5.3-1.7-.2-.1-.1-.4.5 0 .6-.2c1.8.3 3.3-.1 5.2.1a3.8 3.8 0 0 1-.1 1.5c0 .5.3 1 .3 1.5a11 11 0 0 0-.2 1.8 4.4 4.4 0 0 1-2-.1c.1-.4.3-.4.1-.8h.2s-.2-.3-.2-.1.2-.8 0-1.2-1.1-.3-1.7-.5h-.2a22.4 22.4 0 0 1-.2 3.9c.6.3.9-.2 1.9 0s.8.2.8 0h.2c.1-.1.8 0 1.2 0zm-5.9 2.8c.2.1 0 .1.1.4s-.2-.3-.1-.4zm.5-2.3h.1l.2-.2c.1.2-.2.2.1.2s-.3-.3-.3-.2H55zm.1-2.6c.1 0 .1 0 .1.1s.1-.2.2-.3h-.3zm.2 7.7c0 .1 0 .1.1 0-.1-.1.1-.1 0-.2s-.3.3-.2.3zm0-5.7c.2 0 .2-.2.3-.2v.2h-.2c0 .2 0 .3.1.3a.4.4 0 0 0 .2-.4l-.4-.2c0 .1-.3.1-.1.2s0 .1.1.1zm.2.9c-.1-.2 0 .3-.2.3s.4 0 .2.1.2.3.3.1.2-.1.1-.2c-.2-.1-.2.1-.2.1h-.2a.2.2 0 0 0 .2-.2c-.2-.4 0-.2-.2-.2zm.2 1.6c-.2 0 0-.1-.1-.1s-.1.4.1.4.1-.1 0-.3zm0-6.8c0-.2.4.2.2 0l-.2-.3h.2c-.1.1-.3.1-.3.3a.1.1 0 0 1 .1 0zm.2 10.6h-.2c0 .1-.1.2-.1.3s.3.3.5.4 0-.1.1-.1.1 0 0 .1h.5c-.2-.1.1-.1 0-.2h-.2a.2.2 0 0 0 0-.3c0 .1-.2.2-.2.1l.2-.2c-.1-.1-.3.1-.2-.1s-.2-.2-.4 0zm1-5.1c-.1 0 .1 0 0-.1s-.3-.3-.4-.1 0 .4.1.2.3.2.3 0zm.1 5.2c-.1.2.3.3.1.2v-.2c0 .1-.1 0 0-.1s-.4.2-.2.2a.1.1 0 0 1 .1-.1zm1.3-5.7c.4.1.1 0 .4-.1s-.1.3 0 .3.1-.1 0-.2.2.1.2-.2h-.6zm.4 6.2c-.2-.2.1-.5 0-.6s0 .2-.2.3.1.3.2.3zm.3-.6c0 .2-.1.1-.2.2v-.2c0 .2-.1.3 0 .3h.1a.1.1 0 0 1 .1-.1c.1 0 .1-.1 0-.2zm.2-1.4c-.2.4.2-.4 0-.3h-.1c0 .2 0 .3.1.3zm.2-6.9h-.2c0 .1-.1.1 0 .2zm0 6.9c-.1.2.1.1.1.3 0-.2.2 0 .2-.2h-.3zm.3 1.9c-.1-.1.2-.2 0-.2s0-.2-.2-.1-.1.4 0 .5.1-.1.2-.1zm5.6-.6c-.2.2 0 .9.1 1.1s-.4.3-.1.6a5.6 5.6 0 0 1-3.2-.2l-.6.2a2.5 2.5 0 0 1 .2-1.9h.8a1.9 1.9 0 0 1 0-1.3 8.7 8.7 0 0 1 0-3.6c0-.1-.1-.1-.1-.3a3.3 3.3 0 0 0 0-1c0-.2.1 0 .2-.3s.2-.4-.2-.4-.2-1.7.1-1.9h-.3c0-.4.3-.6.2-.9a1.3 1.3 0 0 0-.8-.2c0-.7-.1-.9-.1-1.9s2.2.1 3.8.1a10.8 10.8 0 0 0 0 1.8h-1c-.1.5.2 1.4 0 1.7a1.6 1.6 0 0 1 0 1.2 20.9 20.9 0 0 0 .1 2.4c.1 1.4-.3 3.4.1 4.6h.6s0 .3.2.2zm-2.4-2.1h.2c0-.1-.1-.1-.1-.3s-.3.2-.1.2-.1.1 0 .1zm.2-2.2h-.2c.1 0 0 .1.1.2s-.3.5 0 .6l.5-.4a.3.3 0 0 1-.4-.4zm.1-7.1h-.3c-.1.3.4.3.3 0zm-.1 4.2c.3-.1.1 0-.1-.1s.3.1.3-.1.1-.2 0-.2-.2-.2-.2 0 0 .2-.1.2 0 .2.1.2zm.1 2.5c.1-.1.1.2.2 0s.2-.1 0-.3-.4.4-.2.3zm.2.4h.3c-.1 0 .1 0 .1-.2l-.4.3c.1 0 .1 0 0-.1zm.2 2.7c-.2-.1-.2.2-.1.2a.1.1 0 0 1 .1-.1c0 .3-.2.5.1.6s0-.4-.1-.7zm0-8.8c0 .1-.2.1-.2.2h.2c0-.1.2-.2.1-.2zm.8-.4s-.2 0-.2-.1.1 0 0-.2h.2c-.2 0 0 0-.1-.1a.9.9 0 0 0-.1.5zm5.4 12.5c-.1-.6.1-.9-.1-1.3s.2-.1.2-.3a5.9 5.9 0 0 1-.1-2.3 8.7 8.7 0 0 1 .1-2.3 6.1 6.1 0 0 1 0-2.7h-.1a27.6 27.6 0 0 1 0-2.9 3.5 3.5 0 0 0-1.4-.1c-.8.2-.4 1.4-.5 2.3l.2.3a23.6 23.6 0 0 0-.3 2.9 6.9 6.9 0 0 1 .3 2c-.3.5.1.9-.3 1.3a5.8 5.8 0 0 1 .3 1.4c-.4.5-.3.8-.3 1.6a3.9 3.9 0 0 1-1.8.2 3.2 3.2 0 0 1 .1-1.8.8.8 0 0 0-.2-.4c.3-.5 0-1.4.1-1.9v-.9c0-.3-.1-.6-.1-.9s.2-.8.2-1.2S66 10 66 9l.2-.2a2 2 0 0 1 0-1.7.6.6 0 0 1 0-.8 3.7 3.7 0 0 1-.1-1.5c2.5-.1 3.7.2 5.8-.1a19.3 19.3 0 0 1-.1 2.5 2.7 2.7 0 0 1 .1 1.5c0 .2-.1.2-.2.3s0 1 .1 1.3-.1 4-.1 5.6-.2.3-.2.4.2 1.2.2 2a4.1 4.1 0 0 1-1.9.1zm-3.2-3.5h.2c-.1-.2.1-.2.1-.3h-.2c0 .2-.2.3-.1.3zm0-4.8h.4c0-.1-.1-.1.1-.2s.2 0 .1-.1l-.3-.3c-.1-.1-.2.1-.1.3h.1c-.1.1-.1-.2-.2 0h-.1zm.4-1.4h-.2c0 .1-.2.2 0 .2s.2-.1.2-.2zm-.1-2c-.1-.1.1-.3.1-.4h-.1c.3 0 0 0 0-.1h-.1c0 .2.1.3.2.3h-.3zm0 2.4c-.1-.1-.1-.2-.2 0h.2l.2-.2c.5.6-.1-.2-.2 0h.1c-.1 0-.1.1-.1.2zm0 4.2c.1.2-.2.1 0 .2h.2c.1.2 0 .1-.1.3s-.1 0-.2-.1.2.1.2.2-.2.1-.1.3.1-.6.4-.5-.1-.1 0-.2-.1-.1-.3-.1-.3 0-.1.1zm.3 4.1c0-.1.1 0 .1-.2s-.3-.1-.3-.2c.1 0 .2-.1 0-.1s-.1.2-.1.4.1.1.3.1zm.1-10.7H67c.2 0 0 .1.1.1s.1.1.1.1.3-.4.2-.5-.2-.1-.2 0 .2.3.1.3-.1-.1 0 0zm-.1 2.1c0-.1.1 0 .1-.1s.1-.1 0-.2-.1-.2-.3 0 0 .3.2.3zm2-2.9c-.2-.1.2-.1.2-.3s-.3.2-.4.3zm.8.1c0-.1.3-.1.1-.2s.1-.3 0-.3h-.2c.1.2-.2 0-.2.3zm.7 3h-.2c-.2.3 0 .2.1.3s-.4.1-.3.2h.2c0-.3.5.3.4 0h-.2c0-.1-.1-.2 0-.3s.2.3.2.1.1-.2.1-.4c-.2 0 0-.2-.1-.2a.2.2 0 0 1-.2.2l.2-.2h-.3c.2.2-.1.2.1.3zm-.3 1.5h-.1c0 .2.3.2.3.1s-.3-.3-.2-.1.1 0 0 0zm.2 2s-.1-.1 0-.1h.1v-.2c-.4 0-.4.3-.3.5s.2 0 .2-.2zm-.1-6.1c0 .2 0 .3.1.3s.2 0 .3-.3-.1-.1 0-.1-.4-.3-.3-.1.3.2.1.3-.1-.1-.2-.1zm0 6.3a.7.7 0 0 0 .6-.1v-.2h-.3c-.1.3-.1.1-.3.3zm.2 4.3c.2 0 .1-.1.2-.1v.2c.2 0 .2-.4 0-.5s-.4-.1-.3-.1.1.1.2.3-.1.1-.1.2zm0-11.2h-.1c.1.2-.1.2.2.2s.1-.2-.1-.2zm.1 7.6c.2 0-.1.2.1.3s0-.2.1-.2c0 0-.1-.2-.2-.1zm5.9 1.3c0-.2-.3-.3-.5-.6s-.5-1-1.1-1a.7.7 0 0 0-.7-.8c.3-.2 0-.3 0-.7s-1-1.1-1.5-1.6 0-1.2-.1-1.7.2-.2.3-.4-.1-1-.2-1.5-.1.2-.1.3v-.3c0-.2-.1-1.4.1-1.6a.8.8 0 0 1 .8.1c.1-.1 0-.2.1-.2s.9.4 1.1 0a20.8 20.8 0 0 1 2.5 0l.3-.2c.3.3.6-.1 1 .2s.3 2.9-.1 4.6h-1.9a5.3 5.3 0 0 0-.2-2.6H75c-.4.6-.2 1.4-.2 2.1h.3c0 .2 0 .5.3.6h-.1a12 12 0 0 1 1.7 2.3c-.2.1-.1.2-.2.4h.4c.5.4.6 1.2 1.3 1.3s.5 1 .2 1.4.1.2.1.3.3 1.4-.2 2 .1 1 0 1 0 .4 0 .6-1.6-.3-1.8 0a11.5 11.5 0 0 0-2.7.1 3 3 0 0 0-1.3-.1c0-.1-.2-.2-.2-.2s0-1.9.4-2.8-.2 0-.2-.1a4.7 4.7 0 0 1 .1-1.7h1.8a8.6 8.6 0 0 0 .3 1.7c-.5.6.3 1.2.7 1.3h.4c0 .1.2.1.6-.2s.2-1.4 0-2zm-3.3-6.8c-.2-.1 0 0 0-.1s.1-.4-.1-.3.1.3 0 .1 0 .3-.1.3-.1-.1-.1 0-.1.1.2.1zm.4.8c-.3-.2.3-.4.1-.5s-.4-.1-.5.1.1.2.4.4zm-.1 7.6l.4.2c-.1-.1-.1-.3-.2-.2l-.1.1-.3-.5s0 .7.2.5-.2-.1 0-.1zm0-9.6c.1-.1 0-.2.1-.3-.1 0 0-.2-.1-.2s-.2.3-.1.5.1 0 .1 0zm.2 10.6c-.1.2-.1-.2-.1 0s-.3.5 0 .3.2-.2.3 0-.1.1 0 .1.1-.1.1-.2h-.3c.3-.1.2-.1.3 0s0-.3-.1-.3 0 .2-.2.1-.1-.2 0-.1-.1-.1-.1.1a.3.3 0 0 1 .1 0zm.1-1.5h.2a.1.1 0 0 1-.1-.1c-.2.1-.3.5 0 .3s-.1-.1-.1-.2zm.3-6.6c0 .1.1.2.1.1s-.2-.2-.3 0 .3-.2.1-.2h-.1c.1 0-.1.2-.1.2s.2 0 .3-.1zm.3-3.9c-.1 0-.4 0-.3.2s.3.1.5.1a.2.2 0 0 0 0-.3c-.1.1-.2-.1-.1.1s-.3 0-.1-.1zm.9 6.4h.3c.1-.2 0-.3-.1-.2h-.2v-.3h-.1c.2.2 0 .5.1.5zm.4 0c.1.2 0 .5.3.5zm1.2 2.5c0-.2.1-.1.1-.3s.2-.2 0-.1H77c.1.1.1.1.1.4zm.5-5.5c-.1-.2.1-.3.2-.4a.5.5 0 0 1-.4-.2c0 .2 0 .3.1.4h-.1c0 .1 0 .2-.1.2h-.1c.2.1.3 0 .3-.1s.3.2.1.1zm-.1 5.3h.2c-.2-.1-.1.2-.3.1s.1-.1 0-.2.2.3.1.5.2-.2 0-.4zm.3 2.8c0 .1-.2.3 0 .3s.1 0 .1-.1h.1c.1-.1 0-.3-.1-.2h-.1zm5.7-.1c-.2.2 0 .9.1 1.1s-.4.3-.1.6a5.6 5.6 0 0 1-3.2-.2 1.1 1.1 0 0 1-.6.2 2.5 2.5 0 0 1 .2-1.9h.8a1.9 1.9 0 0 1 0-1.3 8.7 8.7 0 0 1 0-3.6c0-.1-.1-.1-.1-.3a3.3 3.3 0 0 0 0-1c0-.2.1 0 .2-.3s.2-.4-.2-.4-.2-1.7.1-1.9h-.3c0-.4.3-.6.2-.9a1.3 1.3 0 0 0-.8-.2c0-.7-.1-.9-.1-1.9s2.2.1 3.8.1a10.8 10.8 0 0 0 0 1.8h-1c-.1.5.2 1.4 0 1.7a1.6 1.6 0 0 1 0 1.2 20.9 20.9 0 0 0 .1 2.4c.1 1.4-.3 3.4.1 4.6h.6s0 .3.2.2zm-2.4-2.1h.2c0-.1-.1-.1-.1-.3s-.3.2-.1.2-.1.1 0 .1zm.2-2.2h-.2c.1 0 0 .1.1.2s-.3.5 0 .6l.5-.4a.3.3 0 0 1-.4-.4zm.1-7.1h-.3c-.1.3.4.3.3 0zm-.1 4.2c.3-.1.1 0-.1-.1s.3.1.3-.1.1-.2 0-.2-.2-.2-.2 0 0 .2-.1.2 0 .2.1.2zm.1 2.5c.1-.1.1.2.2 0s.2-.1 0-.3-.4.4-.2.3zm.2.4h.3c-.1 0 .1 0 .1-.2l-.4.3c.1 0 .1 0 0-.1zm.2 2.7c-.2-.1-.2.2-.1.2a.1.1 0 0 1 .1-.1c0 .3-.2.5.1.6s0-.4-.1-.7zm0-8.8c0 .1-.2.1-.2.2h.2c0-.1.2-.2.1-.2zm.8-.4s-.2 0-.2-.1.1 0 0-.2h.2c-.2 0 0 0-.1-.1a.9.9 0 0 0-.1.5zM88 18.4c-.1-.6.1-.9-.1-1.3s.2-.1.2-.3a5.9 5.9 0 0 1-.1-2.3 8.7 8.7 0 0 1 .1-2.3 6.1 6.1 0 0 1 0-2.7H88a27.6 27.6 0 0 1 0-2.9 3.5 3.5 0 0 0-1.4-.1c-.8.2-.4 1.4-.5 2.3l.2.3A23.6 23.6 0 0 0 86 12a6.9 6.9 0 0 1 .3 2c-.3.5.1.9-.3 1.3a5.8 5.8 0 0 1 .3 1.4c-.4.5-.3.8-.3 1.6a3.9 3.9 0 0 1-1.8.2 2.5 2.5 0 0 1 .1-1.8.8.8 0 0 0-.2-.4c.3-.5-.1-1.4.1-1.9v-.9c0-.3-.2-.6-.2-.9s.3-.8.3-1.2-.1-1.4-.1-2.4l.2-.2a2 2 0 0 1 0-1.7.6.6 0 0 1 0-.8 3.7 3.7 0 0 1-.1-1.5c2.5-.1 3.7.2 5.8-.1a19.3 19.3 0 0 1-.1 2.5 4 4 0 0 1 .1 1.5c0 .2-.1.2-.2.3s0 1 .1 1.3-.2 4-.1 5.6-.2.3-.2.4.1 1.2.2 2a4.1 4.1 0 0 1-1.9.1zm-3.2-3.5h.2c-.1-.2.1-.2.1-.3h-.2c0 .2-.2.3-.1.3zm0-4.8h.4c0-.1-.1-.1.1-.2s.2 0 .1-.1l-.3-.3c-.1-.1-.2.1-.1.3h.1c-.1.1-.1-.2-.2 0h-.1zm.4-1.4H85c0 .1-.2.2 0 .2s.2-.1.2-.2zm-.1-2c-.1-.1.1-.3.1-.4h-.1c.3 0 0 0 0-.1H85c0 .2.1.3.2.3h-.3zm0 2.4c-.1-.1-.1-.2-.2 0h.2c.1 0 .1-.1.2-.2s-.1-.2-.2 0h.1c-.1 0-.1.1-.1.2zm0 4.2c.1.2-.2.1 0 .2h.2c.1.2 0 .1-.1.3s-.1 0-.2-.1.2.1.2.2-.2.1-.1.3.1-.6.4-.5-.1-.1 0-.2-.1-.1-.3-.1-.3 0-.1.1zm.3 4.1c0-.1.1 0 .1-.2s-.3-.1-.3-.2c.1 0 .2-.1 0-.1s-.1.2-.1.4.1.1.3.1zm.1-10.7h-.3c.2 0 0 .1.1.1s.1.1.1.1.3-.4.2-.5-.2-.1-.2 0 .2.3.1.3-.1-.1 0 0zm-.1 2.1c0-.1.1 0 .1-.1s.1-.1 0-.2-.1-.2-.3 0 0 .3.2.3zm2-2.9c-.2-.1.2-.1.2-.3s-.3.2-.4.3zm.8.1c0-.1.3-.1.1-.2s.1-.3 0-.3h-.2c.1.2-.2 0-.2.3zm.7 3h-.2c-.2.3 0 .2.1.3s-.4.1-.3.2h.2c0-.3.5.3.4 0h-.2c0-.1-.1-.2 0-.3s.2.3.2.1.1-.2.1-.4c-.2 0 0-.2-.1-.2a.2.2 0 0 1-.2.2l.2-.2h-.3c.2.2-.1.2.1.3zm-.3 1.5h-.1c0 .2.3.2.3.1s-.3-.3-.2-.1.1 0 0 0zm.2 2s-.1-.1 0-.1h.1v-.2c-.4 0-.4.3-.3.5s.2 0 .2-.2zm-.1-6.1c0 .2 0 .3.1.3s.2 0 .3-.3-.1-.1 0-.1-.4-.3-.3-.1.3.2.1.3-.1-.1-.2-.1zm0 6.3a.7.7 0 0 0 .6-.1v-.2H89c-.1.3-.1.1-.3.3zm.2 4.3c.2 0 .1-.1.2-.1v.2c.2 0 .2-.4 0-.5s-.4-.1-.3-.1.1.1.2.3-.1.1-.1.2zm0-11.2h-.1c.1.2-.1.2.2.2s.1-.2-.1-.2zm.1 7.6c.2 0-.1.2.1.3s0-.2.1-.2c0 0-.1-.2-.2-.1zm3.5-5.5a2.5 2.5 0 0 0 .2-1.3h-2.1a14.1 14.1 0 0 0 .1-2.1c1.8.1 3.9-.1 5.8 0a.2.2 0 0 0 .2.2 11 11 0 0 0-.2 1.8c-.5.1-.9.6-1.2.1h-.8c-.3.7.3 1.3.1 1.9s-.2.3-.2.4a16.2 16.2 0 0 0 .2 1.8c0 .4-.1.9-.1 1.3s.1.8.1 1.1-.1.2-.1.3.3.5.3.7-.2.4-.3.7.3 1.3 0 1.8 0 1.5-.1 2-.9-.3-1.6-.3 0-.8-.1-1.3h.2c-.4-1.5 0-3.7-.2-5.2s.1 0 .2-.1 0-.2-.2-.4-.2-1 .2-1 0-1.8-.4-2.4zm-.7-2.8c-.1.2-.1 0 0-.2h-.2a.2.2 0 0 0 .1.3s.3-.1.1-.1zm1.6 6.3c-.1-.1 0-.1.1-.3h-.3c0 .3-.2.2-.1.4zm.1-3c.1-.2-.1-.2 0-.3a.5.5 0 0 0-.3.4zm0 7.3c-.2.1 0 .1-.1.2l.2-.2h-.2c0 .1-.2.3-.1.3s0-.3.2-.3zm.1-2.2c0 .3-.4.4-.3.5s.4-.3.3-.5zm-.1-2.9v.2c.2-.2.2-.6.3-.7s-.2.1-.2-.1h-.3c.1 0 .1-.3 0-.1s.2.3 0 .5.4.1.2.2zm0-2.6c0-.3.2.1.2.1s-.1.1-.1.3.3-.2.1-.2-.1.2-.1 0h.3c-.1-.2-.1-.3 0-.7h-.2l-.3.3c.1-.1-.1 0 .1.2zm.1 8.4c-.1 0-.2.2-.1.2a.1.1 0 0 1 .1-.1v.4c.1-.1.1-.5.1-.6s-.4-.1-.2.1zm1.1-10.8c0-.1.1-.3-.1-.3h-.1c-.1.2 0 .2 0 .4zm8.6 5c0 .7-.1 1.2-.1 1.8h-.7c-.2-.1-.1-.4-.3-.5s-.1.2 0 .5-.3.1-.4.2h-2.1c-.2 0-.1 0-.1-.1s.1.9-.3 1.2 0 1.8.1 2.7h1.5c.7-.7.3-1.4.3-2.7s1.6 0 2.2-.2a3.1 3.1 0 0 0 .2 2.1c0 .2-.2.1-.2.2s-.2 1.6-.1 2.6-2.3 0-3.3 0 0 .2-.1.2-2-.2-2.6-.5-.2-2.5 0-3.8.4-1 .5-.6-.4-.3-.4-.6a5.4 5.4 0 0 1 0-1.8c.1-.1-.1-.1-.1-.2s-.3-1.9.2-2.7a.9.9 0 0 1 0-1c-.1-.2-.1-.4-.3-.6s-.1-1.5.3-1.7-.2-.1-.1-.4.5 0 .7-.2c1.7.3 3.3-.1 5.1.1a3.8 3.8 0 0 1-.1 1.5c0 .5.3 1 .3 1.5a11 11 0 0 0-.2 1.8 4.4 4.4 0 0 1-2-.1c.1-.4.3-.4.1-.8h.2s-.1-.3-.1-.1.1-.8-.1-1.2-1.1-.3-1.7-.5h-.2c0 1.8 0 2.6-.1 3.9s.8-.2 1.8 0 .8.2.8 0h.3c0-.1.7 0 1.1 0zm-5.9 2.8c.2.1 0 .1.1.4s-.2-.3-.1-.4zm.5-2.3c.2 0 0 .1.1.1l.2-.2c.1.2-.1.2.1.2s-.2-.3-.3-.2.1.1 0 .1zm.2-2.6c.3 0 .1-.2.2-.3h-.2zm.1 7.7c0 .1 0 .1.1 0-.1-.1.1-.1 0-.2s-.3.3-.2.3zm0-5.7c.2 0 .2-.2.3-.2v.2h-.2c0 .2 0 .3.1.3a.4.4 0 0 0 .2-.4l-.4-.2c0 .1-.3.1-.1.2s0 .1.1.1zm.2.9c-.1-.2 0 .3-.2.3s.4 0 .3.1.1.3.2.1.2-.1.1-.2h.1c-.3-.1-.3.1-.3.1h-.1a.3.3 0 0 0 .1-.2c-.1-.4 0-.2-.2-.2zm.2 1.6c-.2 0 0-.1-.1-.1s0 .4.1.4.1-.1 0-.3zm0-6.8c0-.2.4.2.2 0l-.2-.3h.2c-.1.1-.3.1-.3.3a.1.1 0 0 1 .1 0zm.3 10.6h-.3c0 .1-.1.2-.1.3s.4.3.5.4 0-.1.1-.1.1 0 0 .1h.5c-.2-.1.1-.1 0-.2h-.2a.2.2 0 0 0 0-.3c0 .1-.1.2-.1.1v-.2c-.1-.1-.3.1-.1-.1s-.2-.2-.3 0zm.9-5.1c-.1 0 .1 0 0-.1s-.3-.3-.4-.1 0 .4.1.2.3.2.3 0zm.1 5.2c-.1.2.3.3.1.2v-.2c0 .1-.1 0 0-.1l-.2.2a.1.1 0 0 1 .1-.1zm1.3-5.7c.4.1.1 0 .4-.1s-.1.3 0 .3.1-.1 0-.2.2.1.2-.2h-.6zm.4 6.2c-.2-.2.1-.5 0-.6s0 .2-.2.3.1.3.2.3zm.3-.6c0 .2-.1.1-.1.2s0-.2-.1-.2-.1.3 0 .3h.1a.1.1 0 0 1 .1-.1c.1 0 .1-.1 0-.2zm.2-1.4c-.2.4.2-.4.1-.3h-.2c0 .2 0 .3.1.3zm.2-6.9h-.2c.1.1-.1.1.1.2zm0 6.9c-.1.2.1.1.1.3 0-.2.2 0 .2-.2h-.3zm.3 1.9c0-.1.2-.2 0-.2s0-.2-.2-.1-.1.4 0 .5.2-.1.2-.1zm1.9-12.8h5.9c0 .7.2 1.7-.1 2.1s0 1.7.4 2.6-.1.5-.1.8a7.6 7.6 0 0 0 0 2.6h-1c-.1.4-.2.4-.5.6s.4-.1.5 0 0 .8.3.9c-.1 1.6.7 3.1.5 4.3a4.6 4.6 0 0 1-2-.1 1.5 1.5 0 0 1-.1-.7c0-.1-.1-.1-.1-.2a7 7 0 0 0-.3-1.4 4 4 0 0 0 0-1.1 7.1 7.1 0 0 1-.4-1.7.7.7 0 0 0-.2-.7c-.3-.1-.5.1-.7.2v5.6c-.2.3-.5.2-.9.2s.1-.2 0-.3a3.5 3.5 0 0 1-1.1.3 6 6 0 0 1 0-1.9 18.4 18.4 0 0 1-.1-3.4 2.7 2.7 0 0 0-.1-1.5c.2-.2.1-.7.3-.8a11.5 11.5 0 0 1-.1-4.2c0-.3-.2-.6-.1-.8s-.1-.8 0-1.4zm.7 12.8c.1.3-.2.1-.2.3.1-.1.4.1.3.1s.4-.1.5 0 .2-.1.1-.3-.5-.1-.5.2-.1 0-.1-.1.1-.1.1-.2zm.1-10.4h-.2c.1 0 .2 0 .2.1s0 .4-.3.4 0 .2.1.4l.3-.3h-.2c.1 0 .2 0 .2-.2s.4-.8.3-.9-.4.4-.5.1.1.3.1.4zm0 4.6c-.1.2.1.2.1-.1h-.1zm-.1 1.9h-.2c0 .2.1.3.1.4s0-.2.1-.4zm.2 1.2h-.2c0 .1-.2.2-.1.2h.2c.2.1-.1.1 0 .1s.1-.1.2 0-.1-.1 0-.1h.4c0-.2-.4-.2-.2 0zm-.3 1.9h.4c-.1-.2.1.1.1-.1s.2 0 .1-.1 0-.1 0-.2-.1-.1-.2-.1-.1.2-.1.4h-.1c.1-.1 0-.2 0-.3s0 .1-.1.1-.1-.1-.1 0-.1.3 0 .3zm.4-7c0-.2-.3-.1-.2 0s.1-.1.1.2.4-.6.2-.4h.1c-.3-.1-.1.1-.2.2zm.2-.6c-.2.1-.3.1-.2-.1h-.2c.1 0 .1.2.2.2zm0 4.8c0 .1 0 .1-.1.1h-.1c.2.2 0 .1-.1.3s.2.1.1.2h.3c.1-.2-.1-.2-.1-.3h.2zm.6-4.6c.3 0 .4.7.3 1s.1.2.2.2h1.5c-.1-1.4 0-2.5-.1-3.7s-1.2 0-1.9 0 .4 1.9 0 2.5zm.5 2.6c.1-.2 0 .2.1.1s.2.2.2 0-.1-.1-.2-.2-.2-.2-.2 0zm.2 0c.4 0 0-.2.1-.3h.2c-.1-.1.1-.2-.1-.2s-.2.1-.2 0 .1.3 0 .5zm1-.4h-.2c.1.2-.3.2 0 .2.1.2.1 0 .2 0s.2-.3.1-.4h-.1zm0-6c.2 0 .4.2.2.3s.2 0 .2.1a.1.1 0 0 1 .1-.1c0 .1.1.2.1.1s.1-.4 0-.6-.2-.1-.2.1a.1.1 0 0 0-.1-.1c-.1.2-.1 0-.3.2zm.8 7.9c0 .2-.1.1-.2.2s.2-.2.1-.2h-.2c0-.2 0-.4-.2-.4s-.1.6.3.8.2-.1.4-.3 0-.1-.2-.1zm-.2-.6c-.2 0 0-.4-.3-.2s0 .4.1.3zm.1 2.2c.1-.1-.1-.1-.1-.2s.1-.2.2-.2-.1-.2-.1-.1a.3.3 0 0 1-.3.3c-.1-.3.3.3.3.2zm0 1.4c.2.1.3-.2.3-.2a.2.2 0 0 1-.3 0zm.2-6.7c-.1.2-.1.4.1.3s0-.3-.1-.3zm.3 1.8s-.2-.1-.2 0h.1c.2-.1-.1.1 0 .1s.2.1.1-.1zm0 5.6h.2c0 .1-.1.2.1.3s.2-.2 0-.2.3-.2 0-.4-.4 0-.5.1 0 .3.1.2 0 0 .1 0zm-.1-4.9h.1l.2-.3h-.3c0 .3-.1.3 0 .3zm.2-5.6c0 .1 0 .2.1.1s-.3-.3-.1-.4h-.2a.8.8 0 0 1 .1.4zm.2-.9c-.2-.2-.3-.2-.2 0s-.3 0-.2 0zm0 1.5c0 .2-.1.2-.1.3h-.1c.2 0 .1.3.2.3s.3-.4 0-.6zm5.6 11.4c-.1-.6.2-.9 0-1.3s.2-.1.2-.3a4.4 4.4 0 0 1-.1-2.3h-.1a8.6 8.6 0 0 1 .2-2.3 4.1 4.1 0 0 1 0-2.7h-.1a23.6 23.6 0 0 1-.1-2.9 3.3 3.3 0 0 0-1.4-.1c-.7.2-.3 1.4-.4 2.3v.3a24.8 24.8 0 0 0-.2 2.9 13.8 13.8 0 0 1 .3 2c-.3.5.1.9-.3 1.3a3.2 3.2 0 0 1 .2 1.4 2.6 2.6 0 0 0-.3 1.6 3.7 3.7 0 0 1-1.8.2 3.1 3.1 0 0 1 .2-1.8c-.1-.1-.1-.3-.2-.4s-.1-1.4 0-1.9l.2-.2-.2-.2a4.3 4.3 0 0 1 .1-.5 2.9 2.9 0 0 1-.2-.9c0-.3.2-.8.2-1.2a20.7 20.7 0 0 1 0-2.5l.2-.2a2 2 0 0 1 0-1.7c-.2-.3-.3-.5 0-.8s-.2-1.1-.1-1.5c2.4-.1 3.7.2 5.8-.1-.1 1 0 1.7-.1 2.5a4 4 0 0 1 .1 1.5c0 .2-.2.2-.2.3v1.3c.2 1.4-.1 4 0 5.6s-.2.3-.3.4.2 1.2.3 2a4.6 4.6 0 0 1-1.9.2zm-3.1-3.5h.1c0-.2.1-.2.1-.3h-.1c0 .2-.3.3-.1.3zm0-4.8h.4c0-.1-.1-.1.1-.2s.1 0 .1-.1-.2-.2-.4-.3-.1.1-.1.3h.1c0 .1-.1-.2-.1 0h-.1zm.4-1.4h-.2s0-.2-.1-.1-.1.2 0 .2.3 0 .3-.1zm-.1-2c-.2-.1.1-.3.1-.4h-.2c.3 0 .1 0 0-.1h-.1c.1.2.1.3.3.3h-.3zm0 2.4c-.1-.1-.2-.2-.2 0h.2c.1 0 .1-.1.2-.2s-.1-.2-.3 0h.2c-.2 0-.2.1-.1.2zm0 4.2c.1.2-.2.1-.1.2h.3c0 .2 0 .1-.1.3s-.1 0-.2-.1.2.1.2.2-.2.1-.2.3.2-.6.4-.5 0-.1 0-.2-.1-.1-.2-.1-.3 0-.2.1zm.2 4.1c0-.1.2 0 .1-.2s-.2-.1-.2-.2c.1 0 .1-.1 0-.1s-.2.2-.1.4.1.1.2.1zm.1-10.7h-.2c.1 0 0 .1.1.1s0 .1.1.1.3-.4.2-.5-.2-.1-.2 0 .2.3 0 .3-.1-.1 0 0zm-.1 2.1c0-.1.2 0 .2-.1s.1-.1-.1-.2-.1-.2-.2 0 0 .3.1.3zm2.1-2.9c-.3-.1.1-.1.1-.3s-.2.2-.3.3zm.8.1c0-.1.3-.1.1-.2s0-.3-.1-.3h-.1c.1.2-.3 0-.3.3a.5.5 0 0 1 .4.2zm.6 3h-.2c-.1.3.1.2.2.3s-.4.1-.3.2h.1c0-.3.5.3.4 0h-.1c0-.1-.1-.2 0-.3s.2.3.2.1v-.4h.1c-.2 0 0-.2-.1-.2s-.1.2-.2.2.1-.1.1-.2h-.3c.3.2-.1.2.1.3zm-.2 1.5h-.1c0 .2.2.2.2.1s-.2-.3-.1-.1zm.2 2c-.1 0-.2-.1-.1-.1h.1v-.2c-.4 0-.4.3-.3.5s.3 0 .3-.2zm-.2-6.1a.4.4 0 0 0 .1.3c0-.3.3 0 .4-.3s-.1-.1-.1-.1-.3-.3-.2-.1.2.2 0 .3-.1-.1-.2-.1zm.1 6.3a.7.7 0 0 0 .6-.1c-.1 0-.1-.1-.1-.2h-.3c0 .3-.1.1-.2.3zm.1 4.3c.1 0 .1 0 0 .1h.3c0 .1 0 .1-.1.2s.2-.4.1-.5-.4-.1-.4-.1.2.1.3.3-.2-.1-.2 0zm0-11.2h-.1c.2.2-.1.2.3.2s0-.2-.2-.2zm.2 7.6c.2 0-.1.2.1.3v-.2c0 .1 0 .2.1.1s-.1-.3-.2-.2z" fill="#f2f2f2"/></svg>