<svg id="Layer_1" data-name="Layer 1" xmlns="http://www.w3.org/2000/svg" width="150" height="27" viewBox="0 0 150 27">
  <defs>
    <style>
      .cls-1 {
        fill: red;
      }

      .cls-2 {
        fill: #890000;
      }

      .cls-3 {
        fill: #fff;
      }
    </style>
  </defs>
  <title>banner</title>
  <g>
    <g>
      <rect class="cls-1" x="23.14" width="58.68" height="23.57"/>
      <path class="cls-1" d="M23.21,5.48H.07L9.72,16.22H23.25S23.21,5.44,23.21,5.48Z" transform="translate(-0.07 0)"/>
      <path class="cls-1" d="M29.26,27H.07L9.72,16.24H29.3S29.26,27,29.26,27Z" transform="translate(-0.07 0)"/>
      <path class="cls-2" d="M23.21,23.57l6,3.43V23.51S23.26,23.52,23.21,23.57Z" transform="translate(-0.07 0)"/>
      <rect class="cls-1" x="68.25" width="58.68" height="23.57" transform="translate(195.12 23.57) rotate(-180)"/>
      <path class="cls-1" d="M126.93,5.48h23.14l-9.65,10.74H126.89S126.93,5.44,126.93,5.48Z" transform="translate(-0.07 0)"/>
      <path class="cls-1" d="M120.88,27h29.19l-9.65-10.74H120.84S120.88,27,120.88,27Z" transform="translate(-0.07 0)"/>
      <path class="cls-2" d="M126.94,23.57l-6,3.43V23.51S126.89,23.52,126.94,23.57Z" transform="translate(-0.07 0)"/>
    </g>
    <g>
      <path class="cls-3" d="M47.33,3.72V15.39l-3,1.74-3-1.74V5.16l2.52-1.44V14.9l1,.59V5.16Z" transform="translate(-0.07 0)"/>
      <path class="cls-3" d="M50.39,10.8H53c-.45.77-.79,1.36-1,1.74H50.39V14.9c.46.26.8.45,1,.59l1.44-.85V16l-1.94,1.12-2.52-1.44v-8L50.91,6.2l2.51,1.49L51.54,8.81l-1.15-.66,0,0h0Z" transform="translate(-0.07 0)"/>
      <path class="cls-3" d="M58.58,7.77v2.1l-2,1.18V8.53l-1-.61v9l-2-1.15v-8l2.52-1.49Z" transform="translate(-0.07 0)"/>
      <path class="cls-3" d="M61.37,10.8H64c-.45.77-.79,1.36-1,1.74H61.37V14.9c.46.26.8.45,1,.59l1.44-.85V16l-1.94,1.12-2.52-1.44v-8L61.89,6.2,64.4,7.69,62.52,8.81l-1.15-.66,0,0h0Z" transform="translate(-0.07 0)"/>
      <path class="cls-3" d="M67,3.79V5.58L65,6.77V5Zm-2,4,2-1.19V16.93c-.44-.27-1.11-.65-2-1.16Z" transform="translate(-0.07 0)"/>
      <path class="cls-3" d="M71,8.74l-1-.6v9L68,16V8L70.49,6.5,73,8v9.15L71,16Z" transform="translate(-0.07 0)"/>
      <path class="cls-3" d="M76.81,10.15V8.42l-1-.61v2.54l3,1.8v3.5l-2.51,1.48-2.52-1.48V14.36l2-1.2V14.9l1,.6V12.69l-3-1.79V7.67l2.52-1.49,2.51,1.49V9Z" transform="translate(-0.07 0)"/>
      <path class="cls-3" d="M81.61,3.79V5.58l-2,1.19V5Zm-2,4,2-1.19V16.93c-.44-.27-1.11-.65-2-1.16Z" transform="translate(-0.07 0)"/>
      <path class="cls-3" d="M85.64,8.74l-1-.6v9l-2-1.15V8L85.14,6.5,87.64,8v9.15l-2-1.15Z" transform="translate(-0.07 0)"/>
      <path class="cls-3" d="M91.82,15.49l1.17.69-1.67.95L88.8,15.69v-8h-1c.46-.77.79-1.36,1-1.74v-1l2-1.18V5.91H93L92,7.65H90.81V14.9C91.26,15.16,91.6,15.35,91.82,15.49Z" transform="translate(-0.07 0)"/>
      <path class="cls-3" d="M95,10.8h2.63c-.45.77-.78,1.36-1,1.74H95V14.9l1,.59,1.43-.85V16l-1.94,1.12-2.52-1.44v-8L95.46,6.2,98,7.69,96.09,8.81q-.75-.45-1.14-.66s0,0,0,0h0Z" transform="translate(-0.07 0)"/>
      <path class="cls-3" d="M103.14,7.77v2.1l-2,1.18V8.53l-1-.61v9l-2-1.15v-8l2.52-1.49Z" transform="translate(-0.07 0)"/>
      <path class="cls-3" d="M107,8.74l-1-.6v9l-2-1.15V8l2.52-1.48L109,8v9.15c-.45-.25-1.12-.63-2-1.15Z" transform="translate(-0.07 0)"/>
    </g>
  </g>
</svg>
