<svg id="Layer_1" data-name="Layer 1" xmlns="http://www.w3.org/2000/svg" width="150" height="27"><defs><style>.cls-1{fill:red}.cls-2{fill:#890000}.cls-3{fill:#fff}</style></defs><path class="cls-1" d="M23.14 0h58.68v23.57H23.14z"/><path class="cls-1" d="M23.21 5.48H.07l9.65 10.74h13.53l-.04-10.74zM29.26 27H.07l9.65-10.76H29.3L29.26 27z" transform="translate(-.07)"/><path class="cls-2" d="M23.21 23.57l6 3.43v-3.49s-5.95.01-6 .06z" transform="translate(-.07)"/><path class="cls-1" transform="rotate(-180 97.56 11.785)" d="M68.25 0h58.68v23.57H68.25z"/><path class="cls-1" d="M126.93 5.48h23.14l-9.65 10.74h-13.53l.04-10.74zM120.88 27h29.19l-9.65-10.74h-19.58l.04 10.74z" transform="translate(-.07)"/><path class="cls-2" d="M126.94 23.57l-6 3.43v-3.49s5.95.01 6 .06z" transform="translate(-.07)"/><path class="cls-3" d="M47.33 3.72v11.67l-3 1.74-3-1.74V5.16l2.52-1.44V14.9l1 .59V5.16zm3.06 7.08H53c-.45.77-.79 1.36-1 1.74h-1.61v2.36c.46.26.8.45 1 .59l1.44-.85V16l-1.94 1.12-2.52-1.44v-8l2.54-1.48 2.51 1.49-1.88 1.12-1.15-.66zm8.19-3.03v2.1l-2 1.18V8.53l-1-.61v9l-2-1.15v-8l2.52-1.49zm2.79 3.03H64c-.45.77-.79 1.36-1 1.74h-1.63v2.36c.46.26.8.45 1 .59l1.44-.85V16l-1.94 1.12-2.52-1.44v-8l2.54-1.48 2.51 1.49-1.88 1.12-1.15-.66zM67 3.79v1.79l-2 1.19V5zm-2 4l2-1.19v10.33c-.44-.27-1.11-.65-2-1.16zm6 .95l-1-.6v9L68 16V8l2.49-1.5L73 8v9.15L71 16zm5.81 1.41V8.42l-1-.61v2.54l3 1.8v3.5l-2.51 1.48-2.52-1.48v-1.29l2-1.2v1.74l1 .6v-2.81l-3-1.79V7.67l2.52-1.49 2.51 1.49V9zm4.8-6.36v1.79l-2 1.19V5zm-2 4l2-1.19v10.33c-.44-.27-1.11-.65-2-1.16zm6.03.95l-1-.6v9l-2-1.15V8l2.5-1.5 2.5 1.5v9.15l-2-1.15zm6.18 6.75l1.17.69-1.67.95-2.52-1.44v-8h-1c.46-.77.79-1.36 1-1.74v-1l2-1.18v2.14H93l-1 1.74h-1.19v7.25c.45.26.79.45 1.01.59z" transform="translate(-.07)"/><path class="cls-3" d="M95 10.8h2.63c-.45.77-.78 1.36-1 1.74H95v2.36l1 .59 1.43-.85V16l-1.94 1.12-2.52-1.44v-8l2.49-1.48L98 7.69l-1.91 1.12q-.75-.45-1.14-.66zm8.14-3.03v2.1l-2 1.18V8.53l-1-.61v9l-2-1.15v-8l2.52-1.49zm3.86.97l-1-.6v9l-2-1.15V8l2.52-1.48L109 8v9.15c-.45-.25-1.12-.63-2-1.15z" transform="translate(-.07)"/></svg>