<svg id="Layer_1" data-name="Layer 1" xmlns="http://www.w3.org/2000/svg" viewBox="0 0 160 160"><defs><style>.cls-1{fill:red;}.cls-2{fill:#890000;}.cls-3{fill:#fff;}</style></defs><title>Artboard 1</title><rect class="cls-1" x="28.48" y="66.42" width="58.29" height="23.7"/><path class="cls-1" d="M28.48,71.93H5.5l9.59,10.8H28.53S28.48,71.89,28.48,71.93Z"/><path class="cls-1" d="M34.49,93.56H5.5l9.59-10.81H34.53S34.49,93.6,34.49,93.56Z"/><path class="cls-2" d="M28.48,90.13l6,3.45V90.06S28.53,90.08,28.48,90.13Z"/><rect class="cls-1" x="73.23" y="66.42" width="58.29" height="23.7" transform="translate(204.74 156.55) rotate(-180)"/><path class="cls-1" d="M131.52,71.93h23l-9.59,10.8H131.47S131.52,71.89,131.52,71.93Z"/><path class="cls-1" d="M125.51,93.56h29l-9.59-10.81H125.47S125.51,93.6,125.51,93.56Z"/><path class="cls-2" d="M131.52,90.13l-6,3.45V90.06S131.47,90.08,131.52,90.13Z"/><path class="cls-3" d="M52.44,70.16V81.9l-3,1.75-3-1.75V71.61L49,70.16V81.4l1,.6V71.61Z"/><path class="cls-3" d="M55.49,77.28H58.1c-.44.78-.78,1.36-1,1.75h-1.6V81.4l1,.6,1.43-.86v1.39L56,83.65,53.5,82.2v-8l2.5-1.5,2.49,1.5-1.87,1.13-1.13-.67a.08.08,0,0,0,0,.06l0,0Z"/><path class="cls-3" d="M63.62,74.24v2.1l-2,1.19V75l-1-.62v9.06l-2-1.15V74.24l2.51-1.5Z"/><path class="cls-3" d="M66.39,77.28H69L68,79H66.39V81.4l1,.6,1.43-.86v1.39L66.9,83.65,64.4,82.2v-8l2.5-1.5,2.5,1.5-1.87,1.13-1.14-.67a.39.39,0,0,1,0,.06,0,0,0,0,0,0,0Z"/><path class="cls-3" d="M72,70.23V72l-2,1.2v-1.8Zm-2,4L72,73V83.44l-2-1.16Z"/><path class="cls-3" d="M76,75.21c-.16-.11-.5-.31-1-.61v9.05L73,82.5v-8L75.45,73l2.49,1.49v9.2L76,82.5Z"/><path class="cls-3" d="M81.73,76.63V74.88l-1-.6v2.55l3,1.81v3.52l-2.49,1.49-2.5-1.49v-1.3l2-1.2V81.4l1,.6V79.18l-3-1.79V74.13l2.5-1.5,2.49,1.5v1.31Z"/><path class="cls-3" d="M86.49,70.23V72l-2,1.2v-1.8Zm-2,4,2-1.2V83.44l-2-1.16Z"/><path class="cls-3" d="M90.5,75.21l-1-.61v9.05c-.33-.19-1-.58-2-1.15v-8L90,73l2.49,1.49v9.2c-.45-.25-1.11-.64-2-1.15Z"/><path class="cls-3" d="M96.64,82l1.15.69-1.65,1-2.5-1.45V74.11h-1l1-1.75v-1l2-1.19v2.2h2.15l-1,1.75H95.64V81.4Z"/><path class="cls-3" d="M99.74,77.28h2.62c-.44.78-.78,1.36-1,1.75H99.74V81.4l1,.6,1.42-.86v1.39l-1.93,1.12-2.5-1.45v-8c1.12-.66,2-1.16,2.5-1.5l2.5,1.5-1.87,1.13-1.14-.67a.39.39,0,0,1,0,.06,0,0,0,0,0,0,0Z"/><path class="cls-3" d="M107.88,74.24v2.1l-2,1.19V75l-1-.62v9.06l-2-1.15V74.24l2.5-1.5Z"/><path class="cls-3" d="M111.66,75.21l-1-.61v9.05l-2-1.15v-8l2.5-1.49,2.49,1.49v9.2l-2-1.15Z"/></svg>